<svg width="500" height="382" fill="none" xmlns="http://www.w3.org/2000/svg"><g clip-path="url(#clip0)"><path opacity=".4" d="M412.497 55.813S373.676 3.872 309.3.216C244.924-3.44 209.086 40.444 182.797 73.36c-26.289 32.916-106.119 13.915-154.404 64.388-48.285 50.474-24.87 79.734-3.608 109.006 21.262 29.271 41.695 33.673 41.695 57.797 0 24.125 11.69 56.319 57.75 63.631 46.06 7.312 93.635-37.281 126.551-20.445 32.916 16.837 88.152 29.994 121.981 20.445 33.83-9.549 23.596-44.629 60.131-56.331 36.536-11.701 71.688-48.285 66.565-87.791-5.123-39.506-34.383-46.818-46.818-84.856-12.435-38.039-29.945-67.299-40.143-83.39z" fill="#009ba0"/><path d="M306.186 380.243c83.024 0 150.327-1.717 150.327-3.836 0-2.119-67.303-3.836-150.327-3.836-83.023 0-150.327 1.717-150.327 3.836 0 2.119 67.304 3.836 150.327 3.836z" fill="#000"/><path d="M337.587 19.747H196.339a7.961 7.961 0 00-7.961 7.961V82.92a7.961 7.961 0 007.961 7.962h141.248a7.961 7.961 0 007.961-7.962V27.708a7.961 7.961 0 00-7.961-7.961z" fill="#009ba0"/><path opacity=".1" d="M337.587 19.747H196.339a7.961 7.961 0 00-7.961 7.961V82.92a7.961 7.961 0 007.961 7.962h141.248a7.961 7.961 0 007.961-7.962V27.708a7.961 7.961 0 00-7.961-7.961z" fill="#000"/><path d="M188.378 78.374v25.688l14.323-16.5" fill="#009ba0"/><path opacity=".1" d="M188.378 78.374v25.688l14.323-16.5" fill="#000"/><path d="M309.313 58.772H207.86a2.841 2.841 0 01-2.622-1.752 2.85 2.85 0 01.615-3.093 2.848 2.848 0 012.007-.831h101.453a2.837 2.837 0 012.838 2.838 2.84 2.84 0 01-2.838 2.838zm0 13.036H207.86a2.843 2.843 0 01-2.622-1.752 2.85 2.85 0 01-.216-1.086 2.838 2.838 0 012.838-2.826h101.453a2.837 2.837 0 012.838 2.838 2.836 2.836 0 01-2.838 2.826zm-95.788-26.072c5.632 0 10.198-4.566 10.198-10.199 0-5.632-4.566-10.198-10.198-10.198-5.633 0-10.198 4.566-10.198 10.198 0 5.633 4.565 10.199 10.198 10.199z" fill="#fff"/><path d="M337.587 116.016H196.339a7.962 7.962 0 00-7.961 7.962v55.212a7.96 7.96 0 007.961 7.961h141.248a7.96 7.96 0 007.961-7.961v-55.212a7.962 7.962 0 00-7.961-7.962z" fill="#009ba0"/><path opacity=".1" d="M337.587 116.016H196.339a7.962 7.962 0 00-7.961 7.962v55.212a7.96 7.96 0 007.961 7.961h141.248a7.96 7.96 0 007.961-7.961v-55.212a7.962 7.962 0 00-7.961-7.962z" fill="#000"/><path d="M188.378 174.632v25.688l14.323-16.5" fill="#009ba0"/><path opacity=".1" d="M188.378 174.632v25.688l14.323-16.5" fill="#000"/><path d="M309.313 155.029H207.86a2.836 2.836 0 01-2.838-2.838 2.847 2.847 0 01.831-2.007 2.836 2.836 0 012.007-.831h101.453a2.838 2.838 0 012.838 2.838 2.838 2.838 0 01-2.838 2.838zm0 13.037H207.86a2.848 2.848 0 01-2.622-1.752 2.856 2.856 0 010-2.173 2.847 2.847 0 011.536-1.536 2.855 2.855 0 011.086-.216h101.453a2.835 2.835 0 012.838 2.839 2.838 2.838 0 01-2.838 2.838zm-95.788-26.073c5.632 0 10.198-4.566 10.198-10.198 0-5.633-4.566-10.198-10.198-10.198-5.633 0-10.199 4.565-10.199 10.198 0 5.632 4.566 10.198 10.199 10.198z" fill="#fff"/><path d="M79.228 256.963c-.108 0-.589-7.54-.565-8.021.289-5.568 4.113-16.175 10.15-17.787a7.394 7.394 0 018.03 3.359 7.394 7.394 0 011.014 2.907c.698 4.353-2.129 8.995-5.015 12.026-3.391 3.511-13.614 7.516-13.614 7.516zM71.34 227.92c-.109 0 .552-7.54.66-8.009 1.131-5.472 6.507-15.37 12.724-16.043a7.397 7.397 0 017.998 7.564c0 4.414-3.476 8.563-6.783 11.1-3.884 2.983-14.6 5.376-14.6 5.388zm-1.997-34.299c-.108 0 .565-7.54.661-8.009 1.119-5.472 6.507-15.37 12.724-16.043a7.399 7.399 0 017.997 7.564c0 4.414-3.475 8.563-6.782 11.101-3.885 2.982-14.6 5.387-14.6 5.387zm-3.452-32.242c-.108 0 .566-7.54.662-8.009 1.13-5.472 6.506-15.37 12.724-16.043a7.397 7.397 0 017.997 7.564c0 4.414-3.475 8.563-6.77 11.1-3.897 2.983-14.613 5.388-14.613 5.388zM55.61 135.463c-.097 0-1.456-7.42-1.48-7.901-.36-5.569 2.225-16.548 8.033-18.833a7.398 7.398 0 019.705 5.183c1.203 4.245-1.082 9.176-3.607 12.495-2.947 3.909-12.64 9.056-12.652 9.056zm20.468 121.584c.108 0-3.175-6.867-3.428-7.215-2.97-4.727-11.497-12.099-17.546-10.559a7.389 7.389 0 00-4.612 3.876 7.392 7.392 0 00-.198 6.021c1.515 4.149 6.253 6.807 10.246 8.022 4.654 1.371 15.526-.145 15.538-.145zm-6.326-33.023c.108 0-4.173-6.302-4.486-6.663-3.608-4.221-13.229-10.222-18.941-7.781a7.395 7.395 0 00-3.307 10.499c2.128 3.86 7.215 5.773 11.34 6.374 4.847.721 15.394-2.429 15.394-2.429zm-1.84-32.339c.108 0-4.173-6.302-4.486-6.662-3.608-4.222-13.229-10.223-18.941-7.781a7.384 7.384 0 00-3.98 4.525 7.4 7.4 0 00.709 5.986c2.129 3.86 7.215 5.772 11.34 6.373 4.835.698 15.346-2.441 15.358-2.441zm-3.115-29.692c.108 0-4.173-6.302-4.486-6.663-3.608-4.221-13.228-10.222-18.94-7.781a7.397 7.397 0 00-3.272 10.511c2.129 3.86 7.216 5.773 11.34 6.374 4.835.709 15.346-2.441 15.358-2.441zm-9.127-25.556c.108 0-4.811-5.809-5.196-6.133-4.101-3.789-14.239-8.707-19.687-5.653a7.409 7.409 0 00-3.466 4.944 7.4 7.4 0 001.374 5.88c2.537 3.608 7.805 4.943 12.026 5.087 4.834.144 14.936-4.113 14.948-4.125zm-13.121-21.118c.108 0-1.624-7.384-1.78-7.841-1.9-5.256-8.635-14.287-14.877-14.083a7.394 7.394 0 00-6.842 8.623c.589 4.378 4.654 7.985 8.286 10.03 4.257 2.405 15.2 3.271 15.213 3.271z" fill="#000"/><path d="M89.74 295.928s-1.287-2.946-3.32-8.106a385.13 385.13 0 01-7.757-21.647 333.58 333.58 0 01-4.45-14.708c-.757-2.646-1.43-5.303-2.164-8.154l-.926-4.221c-.337-1.395-.517-2.922-.794-4.401a167.25 167.25 0 01-1.78-18.316c-.312-6.242-.433-12.555-.577-18.869-.144-6.314-.325-12.604-.818-18.773a127.704 127.704 0 00-2.585-17.931 95.391 95.391 0 00-5.364-16.055 130.463 130.463 0 00-6.891-13.662c-2.321-4.125-4.69-7.745-6.819-10.944a134.773 134.773 0 00-5.809-8.045c-3.343-4.402-5.435-6.759-5.435-6.759s2.152 2.321 5.592 6.651c1.72 2.164 3.752 4.81 6.013 7.973a150.607 150.607 0 017.083 10.824 131.334 131.334 0 017.192 13.529 96.58 96.58 0 015.784 16.139 129.242 129.242 0 013.02 18.039c.636 6.218.961 12.544 1.202 18.857.24 6.314.54 12.616.974 18.785a164.658 164.658 0 002.189 17.931c.3 1.431.48 2.826.853 4.246l1.023 4.197c.745 2.645 1.503 5.375 2.297 7.937a310.845 310.845 0 004.714 14.431 371.104 371.104 0 008.142 21.263c2.128 5.075 3.475 7.997 3.475 7.997a2.2 2.2 0 01-1.87 3.268 2.187 2.187 0 01-.882-.161 2.189 2.189 0 01-1.229-1.255l-.084-.06zm28.321-46.614c-.108 0 1.575-7.396 1.732-7.853 1.852-5.267 8.538-14.347 14.78-14.166a7.395 7.395 0 016.891 8.586c-.565 4.378-4.606 8.022-8.226 10.078-4.233 2.429-15.165 3.355-15.177 3.355zm.697-30.089c-.108 0 2.682-7.071 2.911-7.492 2.634-4.919 10.607-12.88 16.764-11.774a7.39 7.39 0 015.83 6.463 7.39 7.39 0 01-.322 3.062c-1.202 4.245-5.76 7.216-9.621 8.719-4.606 1.756-15.562 1.022-15.562 1.022zm7.83-33.445c-.109 0 2.681-7.071 2.91-7.492 2.634-4.919 10.607-12.88 16.764-11.774a7.392 7.392 0 014.878 3.535 7.39 7.39 0 01.63 5.99c-1.202 4.245-5.76 7.216-9.621 8.719-4.606 1.768-15.549 1.022-15.561 1.022zm5.856-31.845c-.108 0 2.682-7.071 2.911-7.492 2.633-4.919 10.607-12.88 16.764-11.774a7.403 7.403 0 014.877 3.535 7.392 7.392 0 01.631 5.99c-1.203 4.245-5.76 7.215-9.621 8.719-4.594 1.707-15.55 1.022-15.562 1.022zm-2.489-27.817c-.108 0 .721-7.528.83-7.997 1.202-5.448 6.831-15.225 13.06-15.778a7.4 7.4 0 017.331 4.693c.378.967.547 2.003.498 3.04 0 4.413-3.608 8.49-7.011 10.955-3.957 2.899-14.696 5.075-14.708 5.087zm-14.937 122.379c.109 0-1.094-7.481-1.202-7.95-1.504-5.375-7.577-14.876-13.83-15.104a7.39 7.39 0 00-7.1 5.053 7.397 7.397 0 00-.345 3.064c.277 4.402 4.065 8.298 7.541 10.595 4.077 2.706 14.936 4.342 14.936 4.342zm3.308-33.457c.12 0-2.213-7.216-2.406-7.673-2.309-5.087-9.741-13.553-15.958-12.844a7.396 7.396 0 00-6.158 9.152c.938 4.306 5.28 7.589 9.068 9.332 4.474 2.057 15.441 2.033 15.454 2.033zm7.444-31.533c.12 0-2.213-7.215-2.406-7.672-2.309-5.087-9.741-13.554-15.958-12.844a7.388 7.388 0 00-6.245 6.072 7.39 7.39 0 00.123 3.08c.938 4.305 5.28 7.588 9.068 9.332 4.438 2.056 15.418 2.032 15.418 2.032zm5.46-29.344c.12 0-2.213-7.215-2.406-7.672-2.309-5.087-9.741-13.554-15.958-12.844a7.384 7.384 0 00-5.103 3.21 7.39 7.39 0 00-1.019 5.942c.938 4.305 5.28 7.588 9.068 9.332 4.45 2.057 15.406 2.032 15.418 2.032zm-1.492-27.094c.109 0-2.994-6.94-3.235-7.36-2.85-4.811-11.172-12.399-17.269-11.016a7.381 7.381 0 00-4.723 3.747 7.396 7.396 0 00-.364 6.018c1.407 4.185 6.073 6.963 10.03 8.286 4.654 1.551 15.549.325 15.561.325zm-6.578-23.981c.108 0 .541-7.54.517-8.021-.312-5.568-4.209-16.151-10.246-17.727a7.395 7.395 0 00-9.008 6.326c-.673 4.365 2.189 8.984 5.087 12.026 3.404 3.452 13.65 7.384 13.65 7.396z" fill="#000"/><path d="M117.075 289.662s-.397-3.187-.878-8.719a374.746 374.746 0 01-1.287-22.97 339.75 339.75 0 01-.084-15.369c0-2.742.144-5.484.241-8.418l.312-4.306c.072-1.443.337-2.946.493-4.437a167.486 167.486 0 013.452-18.04c1.479-6.013 3.163-12.158 4.81-18.255 1.648-6.098 3.271-12.171 4.546-18.232a127.592 127.592 0 002.61-17.931 95.493 95.493 0 00-.577-16.921 130.755 130.755 0 00-2.682-14.997c-1.047-4.606-2.297-8.767-3.428-12.435-1.13-3.668-2.285-6.818-3.259-9.404-1.96-5.16-3.295-8.033-3.295-8.033s1.395 2.838 3.464 7.96a202.583 202.583 0 013.475 9.345c1.251 3.644 2.55 7.793 3.704 12.399a131.43 131.43 0 013.019 15.033 96.553 96.553 0 01.962 17.125 129.2 129.2 0 01-2.249 18.208c-1.203 6.145-2.646 12.302-4.173 18.424-1.527 6.121-3.067 12.242-4.402 18.28a164.8 164.8 0 00-3.006 17.822c-.121 1.455-.349 2.851-.385 4.318l-.217 4.317c0 2.742-.096 5.58 0 8.262 0 5.4.181 10.499.409 15.201.445 9.417 1.203 17.234 1.768 22.694.565 5.459 1.046 8.538 1.046 8.538a2.191 2.191 0 01-.33 1.727 2.196 2.196 0 01-1.491.934 2.208 2.208 0 01-1.698-.457 2.184 2.184 0 01-.822-1.554v-.061l-.048-.048z" fill="#000"/><path d="M131.025 369.191H80.106L65.784 285.79h79.553l-14.311 83.401z" fill="#000"/><path d="M220.716 377.068c61.152 0 110.725-49.573 110.725-110.724 0-61.152-49.573-110.725-110.725-110.725-61.151 0-110.725 49.573-110.725 110.725 0 61.151 49.574 110.724 110.725 110.724z" fill="#009ba0" stroke="#000" stroke-width=".91" stroke-linecap="round" stroke-linejoin="round"/><path d="M191.385 339.138a75.167 75.167 0 01-25.255-15.562 69.105 69.105 0 01-16.717-25.255 90.08 90.08 0 01-6.013-33.589 79.725 79.725 0 015.099-28.694 71.864 71.864 0 0113.77-22.91 91.974 91.974 0 0143.992-26.722 98.872 98.872 0 0125.495-3.368 87.452 87.452 0 0121.178 2.526 68.704 68.704 0 0119.026 7.889 62.944 62.944 0 0115.466 13.108 57.316 57.316 0 0110.402 18.87 74.898 74.898 0 013.788 24.328 67.51 67.51 0 01-16.079 43.367 58.967 58.967 0 01-15.634 12.663 34.4 34.4 0 01-16.656 4.727 18.398 18.398 0 01-11.196-3.68 12.974 12.974 0 01-5.304-10.403c-6.871 9.669-16.155 14.504-27.852 14.504-9.533 0-17.15-3.26-22.85-9.778-5.7-6.518-8.539-14.535-8.515-24.052a63.668 63.668 0 013.728-21.238 71.974 71.974 0 0110.139-19.242 50.394 50.394 0 0116.139-14.035 41.822 41.822 0 0120.661-5.411 30.056 30.056 0 0114.431 3.523 23.638 23.638 0 0110.042 10.247l.95-3.043a8.57 8.57 0 019.537-5.767 8.56 8.56 0 013.692 1.558 5.711 5.711 0 012.104 4.726 7.925 7.925 0 01-.421 2.526l-14.78 49.607c-1.683 5.677-2.525 9.565-2.525 11.666 0 3.576 1.82 5.364 5.46 5.364 4.762 0 9.44-2.189 14.034-6.567a48.27 48.27 0 0011.197-17.45 60.709 60.709 0 004.305-22.549 65.265 65.265 0 00-2.947-20.084 48.679 48.679 0 00-7.985-15.501 47.394 47.394 0 00-12.026-10.728 52.56 52.56 0 00-14.816-6.41 65.356 65.356 0 00-16.5-2.044c-7.058.009-14.081 1-20.866 2.946a74.794 74.794 0 00-19.698 8.852 77.14 77.14 0 00-16.561 14.082 61.924 61.924 0 00-11.46 19.591 68.537 68.537 0 00-4.258 24.281 74.913 74.913 0 005.256 28.754 54.364 54.364 0 0014.347 20.709 64.335 64.335 0 0020.817 12.147 73.658 73.658 0 0025.075 4.209 89.144 89.144 0 0026.914-4.101 8.042 8.042 0 012.73-.421 6.13 6.13 0 014.727 1.948 6.416 6.416 0 011.792 4.462 5.555 5.555 0 01-4.306 5.893 117.63 117.63 0 01-33.529 5.147 88.484 88.484 0 01-31.544-5.616zm38.002-47.72a26.216 26.216 0 009.621-13.229l9.621-33.841-.625-1.371a16.454 16.454 0 00-2.213-3.103 34.18 34.18 0 00-3.728-3.68 18.66 18.66 0 00-5.785-3.151 22.781 22.781 0 00-16.716.577 27.669 27.669 0 00-7.829 5.099 43.014 43.014 0 00-6.362 7.469 49.282 49.282 0 00-4.81 8.983 55.434 55.434 0 00-2.995 9.729 46.592 46.592 0 00-1.046 9.621 48.03 48.03 0 00.373 6.206 28.377 28.377 0 001.202 5.363 18.09 18.09 0 002.153 4.462 13.422 13.422 0 003.151 3.307 13.614 13.614 0 004.365 2.105 20.27 20.27 0 005.677.734 25.93 25.93 0 0015.946-5.256v-.024z" fill="#000"/><path d="M371.296 173.177s-3.608 6.71-4.137 7.66c-.529.951-2.405 6.014-1.888 7.216.517 1.203 1.13 1.888 2.273 2.081 1.142.192 2.08 2.273 3.98 2.645a20.53 20.53 0 003.608.373 2.407 2.407 0 002.081.373c1.13-.373 2.08-.95 2.838-4.161.458-1.597.585-3.271.373-4.919l-.397-6.458-8.731-4.81zm20.841 180.741s-5.135 8.418-5.135 10.391c0 1.972 7.072 5.724 10.102 7.071 3.031 1.347 8.419 2.405 12.796 3.031 4.378.625 13.469 2.405 10.824-1.011-2.646-3.415-18.857-12.459-19.531-13.469a18.97 18.97 0 00-2.79-2.718l-6.266-3.295z" fill="#fff" stroke="#000" stroke-width=".91" stroke-linecap="round" stroke-linejoin="round"/><path d="M400.195 367.087l1.804 2.706a21.58 21.58 0 007.672 7.047c4.811 2.598 12.219 5.568 18.689 3.788 10.607-2.922-16.091-19.025-16.091-19.025s-9.525 6.578-12.074 5.484z" fill="#fff" stroke="#000" stroke-width=".91" stroke-linecap="round" stroke-linejoin="round"/><path d="M403.25 368.362a21.873 21.873 0 0012.459 9.031c8.719 2.49 11.208 1.864 13.084-.625m-41.117-14.011s9.621 6.891 14.311 7.024" stroke="#000" stroke-width=".68" stroke-linecap="round" stroke-linejoin="round"/><path d="M366.798 175.582s8.539 14.155 10.367 17.438c1.828 3.283 24.858 29.584 33.998 52.314 9.14 22.729 17.919 43.162 17.558 49.74-.361 6.578-30.366 62.103-30.366 62.103l-6.218-3.295s9.513-52.302 8.419-57.798c-1.095-5.496-34.744-59.986-34.744-59.986s-15.73-10.968-22.308-23.776" fill="#000"/><path d="M368.001 210.903s-4.811 10.246-4.811 11.701c0 1.456 26.699 80.107 34.383 98.026a366.36 366.36 0 0112.808 35.116s2.922 3.608.734 7.312c-2.189 3.704-10.968 6.218-12.796 2.922-1.828-3.295-19.747-20.444-27.432-37.678-7.685-17.233-18.652-46.457-24.87-57.425a392.337 392.337 0 01-21.948-43.522c-8.045-19.026-16.343-39.627-16.343-39.627a83.544 83.544 0 0032.182-3.607c16.836-5.484 24.052-15.983 24.052-15.983s4.281 10.944 5.388 13.06" fill="#000"/><path d="M370.502 241.377l-8.418-21.899 9.429-8.082" stroke="#fff" stroke-width=".68" stroke-linecap="round" stroke-linejoin="round"/><path d="M379.594 218.804l-17.51.674s0-6.735-3.031-11.113c-3.03-4.377-3.704-5.051-4.04-6.398a12.632 12.632 0 010-3.704m46.818 93.973s11.112 5.724 18.857 5.051m-16.837-1.684s7.745 6.398 14.431 8.082" stroke="#fff" stroke-width=".68" stroke-linecap="round" stroke-linejoin="round"/><path d="M359.39 194.559c-.337 1.011 1.347 5.725 2.405 8.082 1.059 2.357 4.378 4.041 4.378 5.724 0 1.684-4.378 4.715-4.378 4.715m-31.364-9.766s-2.02 6.735-5.388 9.429l-3.367 2.694" stroke="#fff" stroke-width=".68" stroke-linecap="round" stroke-linejoin="round"/><path d="M316.95 201.967s5.724 18.857 14.142 33.349c8.419 14.492 27.661 45.808 28.286 51.869s0 12.122 4.714 15.153c4.715 3.03 4.378 4.377 5.051 8.418a39.138 39.138 0 002.694 8.419s13.469 22.849 18.184 31.268a130.644 130.644 0 0011.653 16.752" stroke="#fff" stroke-width=".68" stroke-linecap="round" stroke-linejoin="round"/><path d="M307.774 187.729s.769 8.514 4.137 11.208c3.367 2.694 13.469 5.051 27.275 2.405 13.806-2.646 28.959-14.431 30.306-18.52 1.347-4.089-5.52-14.672-5.52-14.672s-7.961 11.304-30.186 15.009c-22.224 3.704-26.012 4.57-26.012 4.57z" fill="#fff" stroke="#000" stroke-width=".91" stroke-linecap="round" stroke-linejoin="round"/><path d="M396.527 105.193c-5.484-3.608-48.285-36.944-52.302-38.412-4.017-1.467-12.026 0-12.026 0s-24.834 2.97-30.041 5.123c-.481.193-11.666 6.615-12.027 6.952-4.028 3.295-21.647 11.4-26.385 21.647-5.376 11.593 41.863 81.381 44.064 87.237 2.201 5.857 13.734 7.276 24.341 5.821 10.607-1.455 19.915-3.608 27.6-12.399a26.797 26.797 0 003.475-5.712 11.008 11.008 0 00.794-7.336c-2.742-11.425-9.741-44.365-14.359-66.144 7.697 4.967 23.692 15.057 33.012 18.616 12.435 4.811 21.948 1.468 21.948-2.561s-2.598-9.176-8.094-12.832z" fill="#fff"/><path d="M349.132 93.287a36.22 36.22 0 0010.246 2.189c4.39 0 1.828 1.828 0 2.561-1.828.734 11.702-1.094 11.341 1.095-.361 2.188-9.934 6.59-9.934 6.59a53.233 53.233 0 0020.854 6.578c12.807 1.468 4.81 9.14 4.81 9.14s-20.589-7.564-36.812-19.506l-.505-8.647zm-64.749 24.87s-2.922 4.811-1.467 5.123c1.455.313 16.464-5.856 11.34-.733-5.123 5.123-11.34 5.123-8.779 6.578 2.562 1.455 9.14 1.467 6.951 2.922-2.188 1.456 2.189 8.046 13.169 21.214 10.98 13.169 15.73 22.309 27.805 28.527 12.074 6.217 20.119 6.217 12.807 8.045-7.311 1.828-15.008 2.946-15.369 6.194 0 0 .361 2.561-4.029 4.389-4.389 1.828-6.951 1.467-10.246 0-3.295-1.467-4.39-1.467-5.123-3.295-.734-1.828-3.68-9.429-3.68-9.429l-5.244-11.22-1.683-2.405-1.467-1.095-25.604-43.895 10.619-10.92z" fill="#009ba0" opacity=".5"/><path d="M396.527 105.193c-5.484-3.608-48.285-36.944-52.302-38.412-4.017-1.467-12.026 0-12.026 0s-24.834 2.97-30.041 5.123c-.481.193-11.666 6.615-12.027 6.952-4.028 3.295-21.647 11.4-26.385 21.647-5.376 11.593 41.863 81.381 44.064 87.237 2.201 5.857 13.734 7.276 24.341 5.821 10.607-1.455 19.915-3.608 27.6-12.399a26.797 26.797 0 003.475-5.712 11.008 11.008 0 00.794-7.336c-2.742-11.425-9.741-44.365-14.359-66.144 7.697 4.967 23.692 15.057 33.012 18.616 12.435 4.811 21.948 1.468 21.948-2.561s-2.598-9.176-8.094-12.832z" stroke="#000" stroke-width=".91" stroke-linecap="round" stroke-linejoin="round"/><path d="M269.591 93.01s-4.39 4.81-6.098 7.036c-9.163 11.797-38.327 49.499-38.604 52.542-.276 3.043 1.071 5.099 8.202 7.841 7.132 2.742 54.828-45.074 54.828-45.074" fill="#fff"/><g opacity=".5"><path d="M272.309 92.193l-35.117 49.018s3.608 4.029 8.046 8.046c4.437 4.016 12.026 6.578 6.217 6.217-5.808-.361-16.836-4.81-16.836-4.81s-3.296 2.561.733 5.123c4.029 2.562 4.811.734 16.464 6.578 11.653 5.845 30.438 9.621 30.438 9.621l-1.515 3.079-49.764-12.712s-7.216-3.608-6.182-9.621c1.034-6.013 17.835-25.255 17.835-25.255l24.052-31.52s2.249-3.355 5.629-3.764z" fill="#009ba0" opacity=".8"/></g><path d="M269.591 93.01s-4.39 4.81-6.098 7.036c-9.163 11.797-38.327 49.499-38.604 52.542-.276 3.043 1.071 5.099 8.202 7.841 7.132 2.742 54.828-45.074 54.828-45.074" stroke="#000" stroke-width=".91" stroke-linecap="round" stroke-linejoin="round"/><path d="M366.125 90.822l-16.5 11.112c2.405-.337 13.806-4.378 13.806-4.378m2.02-.336l3.704-.674" stroke="#000" stroke-width=".68" stroke-linecap="round" stroke-linejoin="round"/><path d="M243.205 140.947a17.55 17.55 0 00-7.42 1.407" stroke="#000" stroke-width=".91" stroke-linecap="round" stroke-linejoin="round"/><path d="M279.164 124.423s9.26-2.838 11.725-4.727m2.273-.938s1.515-1.322 2.081-1.322" stroke="#000" stroke-width=".68" stroke-linecap="round" stroke-linejoin="round"/><path d="M349.625 101.946l-1.503-15.466" stroke="#000" stroke-width=".91" stroke-linecap="round" stroke-linejoin="round"/><path d="M224.805 152.732s-2.128 8.142 11.521 11.521c6.482 1.6 49.38 12.027 49.38 12.027s3.836-8.226 1.647-8.226c-2.188 0-41.694-26.338-41.694-26.338" fill="#fff"/><path d="M272.309 92.193l-35.117 49.018s3.608 4.029 8.046 8.046c4.437 4.016 12.026 6.578 6.217 6.217-5.808-.361-16.836-4.81-16.836-4.81s-3.295 2.561.733 5.123c4.029 2.562 4.811.734 16.464 6.578 11.653 5.845 30.438 9.621 30.438 9.621l-1.323 3.151-49.968-12.76s-9.465-4.473-6.182-9.621c3.728-5.892 17.835-25.255 17.835-25.255l24.558-31.268a5.424 5.424 0 015.135-4.04z" fill="#009ba0" opacity=".5"/><path d="M224.805 152.732s-2.128 8.142 11.521 11.521c6.482 1.6 49.38 12.027 49.38 12.027s3.836-8.226 1.647-8.226c-2.188 0-41.694-26.338-41.694-26.338" stroke="#000" stroke-width=".91" stroke-linecap="round" stroke-linejoin="round"/><path d="M287.353 168.102s14.083 6.578 15.177 8.418c1.095 1.84 3.608 11.341 3.608 14.263 0 2.922-.361 2.922-2.189 2.922-1.827 0-6.578-6.951-7.684-8.418-1.107-1.467-3.608-1.467-6.951-3.608a8.105 8.105 0 01-3.608-5.303l1.647-8.274z" fill="#fff" stroke="#000" stroke-width=".91" stroke-linecap="round" stroke-linejoin="round"/><path d="M281.34 174.921l2.189-6.795" stroke="#000" stroke-width=".91" stroke-linecap="round" stroke-linejoin="round"/><path d="M314.268 102.956s-22.561-12.832-30.655-11.677c-8.093 1.154-15.032 2.309-15.032 2.309l15.02-10.511c7.432 3.511 18.256 11.449 30.667 19.879z" fill="#009ba0" opacity=".4"/><path d="M388.121 116.894s-3.608 12.435-5.124 19.747c-1.515 7.312-11.701 36.536-11.701 36.536l8.779 5.484s19.386-40.24 23.042-49.019c3.656-8.779 2.562-15.357-1.094-19.025" fill="#fff"/><path d="M388.121 116.894s-3.608 12.435-5.124 19.747c-1.515 7.312-11.701 36.536-11.701 36.536l8.779 5.484s19.386-40.24 23.042-49.019c3.656-8.779 2.562-15.357-1.094-19.025" stroke="#000" stroke-width=".91" stroke-linecap="round" stroke-linejoin="round"/><path d="M372.956 169.004c.661 0 8.983 4.606 8.983 4.606z" fill="#000"/><path d="M315.266 102.956c-2.02-.337-12.796-7.408-20.204-13.133-7.408-5.724-11.449-6.734-11.449-6.734l-5.051 3.367a9.75 9.75 0 01.674-7.408c2.02-3.704 9.092-7.408 16.163-10.102s15.153-5.051 20.204-5.051 6.398 2.02 6.398 4.714c0 2.694 0 11.113-1.684 17.51-1.684 6.398-5.051 16.837-5.051 16.837z" fill="#fff"/><path d="M312.091 67.828s-3.115 9.332-6.217 12.134a46.506 46.506 0 01-7.781 5.291s-1.864-6.53-6.53-6.53c-4.667 0-11.81 3.055-11.81 3.055s0-2.49 5.905-5.604l5.905-3.115 13.685-5.291 6.843.06z" fill="#009ba0" opacity=".5"/><path d="M315.266 102.956c-2.02-.337-12.796-7.408-20.204-13.133-7.408-5.724-11.449-6.734-11.449-6.734l-5.051 3.367a9.75 9.75 0 01.674-7.408c2.02-3.704 9.092-7.408 16.163-10.102s15.153-5.051 20.204-5.051 6.398 2.02 6.398 4.714c0 2.694 0 11.113-1.684 17.51-1.684 6.398-5.051 16.837-5.051 16.837z" stroke="#000" stroke-width=".91" stroke-linecap="round" stroke-linejoin="round"/><path d="M285.333 60.203a34.485 34.485 0 018.106 15.357c2.14 9.513 15.898 20.65 19.242 20.65 3.343 0 3.066-16.308 1.972-21.058-1.095-4.75-5.58-17.51-5.58-17.51s-17.522-8.419-23.74 2.561z" fill="#fff"/><path d="M312.091 67.828s-3.115 9.332-6.217 12.134a46.506 46.506 0 01-7.781 5.291s-1.864-6.53-6.53-6.53c-4.667 0-11.81 3.055-11.81 3.055s0-2.49 5.905-5.604l5.905-3.115 13.685-5.291 6.843.06z" fill="#009ba0" opacity=".5"/><path d="M285.333 60.203a34.485 34.485 0 018.106 15.357c2.14 9.513 15.898 20.65 19.242 20.65 3.343 0 3.066-16.308 1.972-21.058-1.095-4.75-5.58-17.51-5.58-17.51s-17.522-8.419-23.74 2.561z" stroke="#000" stroke-width=".91" stroke-linecap="round" stroke-linejoin="round"/><path d="M273.74 42.573a128.001 128.001 0 009.537 20.252c5.556 9.14 16.283 14.299 22.236 11.918 5.953-2.382 10.006-10.054 8.418-21.972-.349-2.622-2.634-3.692-3.367-6.013-2.622-8.419-5.304-16.524-6.242-19.627-1.202-3.969-10.727-7.95-20.649-5.16-9.921 2.79-11.521 11.065-9.933 20.602z" fill="#fff"/><path d="M306.667 35.285s-3.607 2.694-11.713 1.13c-8.106-1.563-13.686-1.202-13.373.938.313 2.14.938 4.98.938 4.98s-9.729-8.42-.914-10.668c6.35-1.636 10.018.866 11.581 1.203 1.564.336 13.481 2.417 13.481 2.417z" fill="#009ba0" opacity=".5"/><path d="M273.74 42.573a128.001 128.001 0 009.537 20.252c5.556 9.14 16.283 14.299 22.236 11.918 5.953-2.382 10.006-10.054 8.418-21.972-.349-2.622-2.634-3.692-3.367-6.013-2.622-8.419-5.304-16.524-6.242-19.627-1.202-3.969-10.727-7.95-20.649-5.16-9.921 2.79-11.521 11.065-9.933 20.602z" stroke="#000" stroke-width=".91" stroke-linecap="round" stroke-linejoin="round"/><path d="M280.883 55.67s-6.35-2.779-6.746 0c-.397 2.777 2.405 4.81 5.159 6.012a3.934 3.934 0 004.365-.397" fill="#fff"/><path d="M280.883 55.67s-6.35-2.779-6.746 0c-.397 2.777 2.405 4.81 5.159 6.012a3.934 3.934 0 004.365-.397" stroke="#000" stroke-width=".91" stroke-linecap="round" stroke-linejoin="round"/><path d="M306.848 39.975s-7.072-1.684-4.041 7.745c.601 1.864 4.714 4.04 4.714 4.04s-.336 3.031-2.02 3.368" fill="#fff"/><path d="M306.848 39.975s-7.072-1.684-4.041 7.745c.601 1.864 4.714 4.04 4.714 4.04s-.336 3.031-2.02 3.368" stroke="#000" stroke-width=".91" stroke-linecap="round" stroke-linejoin="round"/><path d="M301.857 61.863s-5.051 1.01-7.071-1.347z" fill="#fff"/><path d="M301.857 61.863s-5.051 1.01-7.071-1.347" stroke="#000" stroke-width=".91" stroke-linecap="round" stroke-linejoin="round"/><path d="M294.389 46.036s-3.704-1.347-5.725.337a6.722 6.722 0 00-2.405 3.03" fill="#fff"/><path d="M294.389 46.036s-3.704-1.347-5.725.337a6.722 6.722 0 00-2.405 3.03" stroke="#000" stroke-width=".91" stroke-linecap="round" stroke-linejoin="round"/><path d="M294.065 54.27c.599-.257.698-1.366.222-2.477-.476-1.111-1.346-1.804-1.945-1.548-.598.256-.697 1.365-.222 2.476.476 1.111 1.347 1.804 1.945 1.548zm12.109-5.891c.598-.257.697-1.365.221-2.476-.475-1.112-1.346-1.805-1.945-1.549-.598.257-.697 1.365-.221 2.476.475 1.112 1.346 1.805 1.945 1.549zm-27.059 8.901s4.029-2.922 3.296-5.483c-.734-2.562-2.189-2.562-.734-4.03 1.455-1.466 2.562-2.188 2.189-4.389-.373-2.2-6.218-5.856-4.39-8.045 1.828-2.189 1.095-4.81 16.091-1.094 14.997 3.716 24.51-2.19 20.12-7.685-4.39-5.496-8.046-6.218-8.046-6.218s8.419-3.608 1.468-7.312c-6.951-3.704-22.682-3.608-31.461 3.296-8.779 6.902-6.951 12.807-6.951 12.807s-4.81.734-5.123 8.046c-.313 7.312 13.541 20.108 13.541 20.108z" fill="#000"/><path d="M279.007 32.278s1.203-3.728 7.444-3.728c6.242 0 11.798 5.28 20.216 3.415 8.419-1.863 3.728-6.818 3.728-6.818" stroke="#fff" stroke-width=".68" stroke-linecap="round" stroke-linejoin="round"/><path d="M276.229 31.352s.602-7.697 7.432-9.428c6.831-1.732 15.827 1.683 18.316.745m-29.163 8.996s-3.728 0-4.029 4.967a8.08 8.08 0 002.79 7.131m4.654-8.995a3.95 3.95 0 00-2.365 2.291 3.959 3.959 0 00.188 3.288m-.613 4.343l1.551 2.176" stroke="#fff" stroke-width=".68" stroke-linecap="round" stroke-linejoin="round"/></g><defs><clipPath id="clip0"><path fill="#fff" d="M0 0h500v381.999H0z"/></clipPath></defs></svg>