<svg version="1.1" id="Слой_1" xmlns="http://www.w3.org/2000/svg" x="0" y="0" viewBox="0 0 5000 3500" xml:space="preserve"><style>.st0,.st1{fill:none;stroke:#66b0f0;stroke-width:6;stroke-miterlimit:10}.st1{stroke-linecap:round}.st3{fill:#d0f0e4}.st4{fill:#3fb1b5}.st5{stroke-linecap:round}.st5,.st6{fill:none;stroke:#ffcf2d;stroke-width:6;stroke-miterlimit:10}.st7{fill:#fe5244}.st8{opacity:.2}.st9{fill:#fff}.st10{fill:#e57281}.st11{stroke-width:6}.st11,.st12{fill:none;stroke:#fff;stroke-miterlimit:10}.st12,.st13,.st14{stroke-width:5}.st13,.st14,.st15,.st16{stroke-miterlimit:10}.st13{fill:none;stroke:#fff;stroke-linecap:round}.st14{fill:#fff;stroke:#fe5244}.st15,.st16{fill:#fff;stroke:#9a3b82;stroke-width:6;stroke-linecap:round}.st16{fill:none}.st17{fill:#9a3b82}.st18{fill:#ffcf2d}.st21{fill:#73325a}.st22,.st25{fill:none;stroke:#73325a;stroke-width:4;stroke-linecap:round;stroke-miterlimit:10}.st25{fill:#fff;stroke:#3fb1b5;stroke-width:6}.st26{fill:#a0505a}.st28{fill:#fff;stroke-miterlimit:10}.st28,.st29{stroke:#fe5244;stroke-width:6}.st29,.st30,.st32{fill:none;stroke-miterlimit:10}.st30{stroke:#fe5244;stroke-width:6;stroke-linejoin:round}.st32{stroke:#9a3b82;stroke-width:4;stroke-linecap:round}</style><g id="DOORS"><path class="st0" d="M1870.1 432.3h1306v1234.3h-1306z"/><path class="st0" d="M1870.1 432.3h653v1234.3h-653zm653 0h653v1234.3h-653z"/><path class="st0" d="M2657.4 551.7h398.2v398.2h-398.2z"/><path class="st1" d="M2917.5 743.2l-46.3 35m-64.5 48.8l-149.3 112.9v-83l398.1-295.2v77.2L2948.2 720"/><path fill="#66b0f0" d="M1870.1 432.3h653v95.5z"/><path class="st0" d="M2686.2 1221.2c-4.5 0-8.7-2.4-11-6.4l-95.5-167c-4.8-8.4 1.3-19 11-19 4.5 0 8.7 2.4 11 6.4l95.5 167c4.8 8.5-1.3 19-11 19zM1989 551.7h398.2v398.2H1989z"/><path class="st1" d="M1989 856.9l398.1-295.2"/><path class="st0" d="M2358.3 1221.2c4.5 0 8.7-2.4 11-6.4l95.5-167c4.8-8.4-1.3-19-11-19-4.5 0-8.7 2.4-11 6.4l-95.5 167c-4.8 8.5 1.3 19 11 19z"/></g><g id="STAIRS"><path class="st3" d="M4197.5 2868.1l-3364.1 190v-270.3h3364.1zm-153.3-289.8l-3036.2 190V2498h3036.2zm-195.5-288.8l-2676.8 190v-270.3h2676.8zm-154.1-286.8l-2340.1 190v-270.3h2340.1z"/><path class="st0" d="M833.4 2787.8h3364.1v260.3M1008 2497h3036.2v271.4m-2872.3-560.2h2676.8v271.3m-2493.2-558.1h2339.1v271.3"/><path class="st3" d="M3484.6 1731.7l-1920 166.5v-236.9h1920z"/><path class="st0" d="M1565.4 1660.4h1919.2v237.8m-2129.9 305.7v-624.2m516.7-423.5L696.9 2118.3c-41.1 41.1-64.2 96.8-64.2 154.9 0 121 98.1 224.1 219.1 224.1m153.2 271.1v-903.1m2689.6 340.6v-626.2m-516.7-423.5l1174.6 962.1c41.1 41.1 64.2 96.8 64.2 154.9 0 121-98.1 224.1-219.1 224.1m-153.2 271.1v-903.1"/></g><g id="PLANTS"><path class="st4" d="M3884.9 3063.6s130.9-234.9 51.4-236.2c-37.1-.6-75.1 126.5-60.7 236.2h9.3z"/><path class="st5" d="M3879.2 3062.3s48.6-219.9 166-184.4-83 184.4-83 184.4m-240.1 3.8c-40.7-3.8-63.7-76.6-15.5-100.9 69.3-34.9 91 38 77.3 40.4-13.7 2.5-33-89.7 26.8-87.2s62 143.9 62 143.9m55.7 0s62.5-151.8 123.4-182.1"/><path class="st6" d="M3861.8 2983.5s-14.7-81.5-15.3-135.1m33.1 36.3c-2.9 7.2-25.3 25.1-25.3 25.1s-3.6-28.5-.7-35.7c2.9-7.2 11.1-10.6 18.2-7.7 7.2 2.9 10.7 11.1 7.8 18.3z"/><path class="st6" d="M3872.1 2827.4c-2.9 7.2-25.3 25.1-25.3 25.1s-3.6-28.5-.7-35.7c2.9-7.2 11.1-10.6 18.2-7.7 7.2 3 10.7 11.1 7.8 18.3zm-51.6 63.6c4.2 6.5 29.6 19.8 29.6 19.8s-1.9-28.6-6.1-35.1-12.9-8.3-19.4-4.1c-6.5 4.3-8.3 12.9-4.1 19.4z"/><path class="st4" d="M974.5 3067.7s-80.4-72.6-78.8-124.7c1.8-59.6 58.8-30.8 61.8-52.3 3.1-21.4-60.2-167.8 27.9-166.7s47.1 141.5 71 154.5c23.9 12.9 63.5-2.5 52.8 54.3-10.7 56.9-99.7 134.2-99.7 134.2l-35 .7z"/><path class="st5" d="M733.1 3065.9c-52.1 0-92.2-95.2-11.9-120.4s89.1 50.7 71.6 53.6c-17.5 2.9-26.2-145.8 118.3-125.6 157.7 22 61.3 192.4 61.3 192.4s93-156.4 7.5-339.6m101.7 339.6s81.6-170.8 159.9-116.4-105.5 116.4-105.5 116.4m-25-1.5s79.3-106 131.6-113.8m-231.7 114.3s42.9-99.9 80.9-159.1"/><path class="st6" d="M1101.9 2969.4c-8.4 5.8-45.9 9.3-45.9 9.3s16.7-33.8 25-39.6c8.4-5.8 19.8-3.7 25.6 4.7s3.7 19.9-4.7 25.6zm33.2-68.2c-8.4 5.8-45.9 9.3-45.9 9.3s16.7-33.8 25-39.6c8.4-5.8 19.8-3.7 25.6 4.7s3.7 19.9-4.7 25.6zm13.9-57.9c-5.4 8.6-38.5 26.6-38.5 26.6s1.9-37.6 7.4-46.2c5.4-8.6 16.8-11.2 25.4-5.8 8.6 5.4 11.1 16.8 5.7 25.4zm-116.5 90.3c-.1 10.2 18.1 43.2 18.1 43.2s18.6-32.8 18.7-42.9c.1-10.2-8.1-18.5-18.3-18.5-10.1-.1-18.4 8-18.5 18.2zm37.2-67.4c-.1 10.2 18.1 43.2 18.1 43.2s18.6-32.8 18.7-42.9c.1-10.2-8.1-18.5-18.3-18.5s-18.4 8.1-18.5 18.2z"/><path class="st0" d="M3469.3 3066.1h842.8m-3708.7 0h2033.4"/></g><g id="_x33__CHARACTER"><g id="JACKET_1_"><path class="st7" d="M2451.8 1146.2c0 6.2-.7 12.3-2 18.3l-.9 3.6c-3.2 12-9 23.4-17.3 33.1-.1.1-.2.3-.3.4-.9 1.1-1.9 2.1-2.9 3.2-.2.3-.5.5-.7.7-3.3 3.4-7 6.6-11 9.5-7 5.1-14.4 8.9-22.1 11.6l-3.6 1.2c-10.8 3.2-22.1 4.2-33.1 3-1.2-.1-2.4-.3-3.6-.5-11.7-1.8-23-5.9-33.1-12.4l-3.6-2.4c-4.4-3.1-8.5-6.7-12.3-10.7-1.1-1.2-2.2-2.3-3.2-3.6-2.1-2.5-4.2-5.2-6-8l-6.3-9.5 5.6 17.5 1.1 3.6 10.5 33.1 1.1 3.6 9.5 30 1 3.1 1.1 3.6 1.5 4.6 9 28.5 1.1 3.6 10.5 33.1 1.1 3.6 10.5 33.1.8 2.6.3 1 3.3 10.3.6 1.9c-.1-.4-.3-.8-.6-1.2-.7-1-1.9-1.9-3.6-2.7-5.7-2.8-17.1-4.9-33.1-6.1l-3.6-.3c-9.6-.6-20.6-1-33.1-1.2h-3.6c-10.2-.1-21.2 0-33.1.3-1.2 0-2.4.1-3.6.1-10.5.3-21.5.7-33.1 1.2-1.2.1-2.4.1-3.6.2-10.6.5-21.6 1.1-33.1 1.8-1.2.1-2.4.1-3.6.2-10.7.7-21.7 1.4-33.1 2.3l-3.6.3c-10.8.8-21.8 1.7-33.1 2.7l-3.3.3h-.3c-11.2 1-22.3 2-33.1 3.1-1.2.1-2.4.2-3.6.4-11.3 1.1-22.4 2.3-33.1 3.6-1.2.1-2.4.3-3.6.4-11.4 1.3-22.5 2.7-33.1 4.2-1.2.2-2.4.3-3.6.5-11.6 1.6-22.6 3.2-33.1 4.8l-3.6.6c-11.4 1.8-22 3.7-31.9 5.5-.4.1-.8.2-1.2.2-1.2.2-2.4.5-3.6.7-4.5.9-8.8 1.8-12.9 2.7-7.4 1.6-14.1 3.2-20.2 4.8-1.2.3-2.4.6-3.6 1-21 5.7-32.9 11.3-32.9 16.3v-143.6h-110.3c-1.2 0-2.4 0-3.6-.1-11.6-.4-22.7-2.6-33.1-6.2-1.2-.4-2.4-.9-3.6-1.3-10.9-4.3-21-10.2-30-17.5-1-.8-2.1-1.7-3.1-2.6-.4-.3-.7-.6-1.1-1-.8-.7-1.7-1.5-2.5-2.3-.7-.6-1.3-1.3-2-2-8.4-8.4-15.5-18.1-20.9-28.9-.6-1.2-1.2-2.4-1.7-3.6-4.8-10.3-8-21.4-9.4-33.1-.2-1.2-.3-2.4-.4-3.6-.3-3.4-.5-6.8-.5-10.3 0-7.7.8-15.4 2.3-22.8.2-1.2.5-2.4.8-3.6 2.8-11.7 7.5-22.8 13.9-33.1.6-.9 1.2-1.9 1.8-2.8l.5-.8 15.5-23.3 3.6-5.4 3-4.4 2.4-3.6 22.1-33.1 2.4-3.6 3.3-4.9 3.6-5.4 15.2-22.8 2.4-3.6 15.5-23.3 3.6-5.4 2.9-4.4 2.4-3.6 22.1-33.1 2.4-3.6.6-.9c.9-1.3 1.8-2.5 2.7-3.8 1.2-1.6 2.4-3.1 3.6-4.7 7-8.8 14.8-16.7 23.4-23.7l4.5-3.6c1.7-1.3 3.5-2.6 5.2-3.8l3.6-2.4c10.3-6.9 21.5-12.5 33.1-16.8 1.2-.4 2.4-.9 3.6-1.3 10.7-3.7 21.8-6.2 33.1-7.5 1.2-.1 2.4-.3 3.6-.4 5-.5 10.1-.7 15.2-.7h280.3l.3-.1 9.2-3.6 21.6-8.4 3.6-1.4 33.1-12.9 3.6-1.4 23.3-9 9.2-3.6.6-.3 3.6-1.4 6.2-2.4 2.2 4.1 2 3.6 18.1 33.1 2 3.6 2.6 4.8 3.6 6.6 11.9 21.7 2 3.6 18.1 33.1 1.1 2.1.8 1.5 2.8 5 15.3 28.1 2 3.6 15.8 28.9 2.3 4.2 1.3 2.3.7 1.3 18.1 33.1 2 3.6 12.3 22.5 3.6 6.6 2.2 4 2 3.6 5.9 10.8c3.9 7.2 6.7 14.7 8.4 22.3.3 1.2.5 2.4.7 3.6 1.1 4.6 1.5 9.6 1.5 14.5z"/><g class="st8"><path class="st9" d="M1660.9 1099.2v176.4c-.4-.3-.7-.6-1.1-1-.8-.7-1.7-1.5-2.5-2.3v-167.7l3.6-5.4zm73.4-110.1v314.2c-1.2 0-2.4 0-3.6-.1V994.5l3.6-5.4zm-36.7 55v252.8c-1.2-.4-2.4-.9-3.6-1.3v-246.1l3.6-5.4zm110.1-142.7v401.8h-3.6V903.9c1.2-.8 2.4-1.7 3.6-2.5zM1771 935v368.2h-3.6V939.7c1.2-1.6 2.4-3.1 3.6-4.7zm110.1-59.5v554.2c-1.2.3-2.4.6-3.6 1V875.8l3.6-.3zm-36.7 7.9v419.9h-3.6V884.6l3.6-1.2zm73.3-8.8v546.9c-1.2.2-2.4.5-3.6.7V874.6h3.6zm73.4 0v535.3c-1.2.2-2.4.3-3.6.5V874.6h3.6zm-36.7 0v540.6l-3.6.6V874.6h3.6zm110.1 0v526.8c-1.2.1-2.4.2-3.6.4V874.6h3.6zm-36.7 0v530.7c-1.2.1-2.4.3-3.6.4V874.6h3.6zm110.1 0V1395l-3.6.3V874.6h3.6zm-36.7 0V1398l-3.3.3h-.3V874.6h3.6zm73.3 0v518c-1.2.1-2.4.1-3.6.2V874.6h3.6zm73.4-27.6v542.4c-1.2 0-2.4.1-3.6.1V848.4l3.6-1.4zm-36.7 14.2v529.4c-1.2.1-2.4.1-3.6.2V862.6l3.6-1.4zm110.1 24.8v331.9l-3.6-2.4v-336l3.6 6.5zm0 396.8v107.7l-3.6-.3v-118.8l1 3.1 1.1 3.6 1.5 4.7zm-36.7-450.6v.5l-3.6 1.4v-1.9z"/><path class="st9" d="M2284.6 832.7v556.4h-3.6v-555l3.6-1.4zm110.1 187.4v206.5l-3.6 1.2v-214.2l2.3 4.2 1.3 2.3zm-36.7 378.5v.8c-.7-1-1.9-1.9-3.6-2.7v-9.4l.3 1 3.3 10.3zm0-445.6v277.7c-1.2-.1-2.4-.3-3.6-.5V946.5l.8 1.5 2.8 5zm73.3 134.1v114.5c-.9 1.1-1.9 2.1-2.9 3.2-.2.3-.5.5-.7.7v-124.9l3.6 6.5z"/><path class="st9" d="M1919 1421.3c-.4.1-.8.2-1.2.2-1.2.2-2.4.5-3.6.7-4.5.9-8.8 1.8-12.9 2.7h-56.9v-3.6h74.6zm424.1-69.8h-498.7v-3.6h497.5zm11.6 36.7h-510.3v-3.6h509.2l.8 2.6zm-23.3-73.4h-487v-3.5h485.9zm-23.2-73.3h-673.7c-.6-1.2-1.2-2.4-1.7-3.6h674.3l1.1 3.6zm11.6 36.7H1664c-1-.8-2.1-1.7-3.1-2.6-.4-.3-.7-.6-1.1-1h658.8l1.2 3.6zm130.1-113.7l-.9 3.6h-824.2c.2-1.2.5-2.4.8-3.6h824.3zm-153.3 40.3h-673.3c-.2-1.2-.3-2.4-.4-3.6h672.5l1.2 3.6zm135.1-3.6c-.1.1-.2.3-.3.4-.9 1.1-1.9 2.1-2.9 3.2h-123.1c-1.1-1.2-2.2-2.3-3.2-3.6h129.5zm3.8-106.5h-771.6l2.4-3.6h767.2zm15 36.7h-811c.6-.9 1.2-1.9 1.8-2.8l.5-.8h808c.3 1.2.5 2.4.7 3.6zm-35.1-73.4h-727l2.3-3.5h722.8zm-40.1-73.3h-638.1l2.4-3.6h633.7zm20.1 36.7h-682.6l2.4-3.6h678.2l1.3 2.3zm-60.3-110.1h-540.8l4.5-3.6h534.3l2 3.6zm20.1 36.7h-593.5l2.4-3.6h589.1l1.2 2.1zM2295 837.9h-23.8l9.2-3.6h12.6zm20.1 36.7h-138.2l9.2-3.6h127z"/></g><path class="st10" d="M2106.7 1471c-169.2 13.1-262-2.9-262.1-24.1 0-15.2 111.7-36.3 253.3-48.6 149.5-12.9 256.1-12.3 260.7 2.2 6.4 20.2-76.7 56.9-251.9 70.5z"/><path class="st11" d="M2098.8 1276.4l57.6 117.3"/><circle class="st12" cx="2079.7" cy="1313.3" r="8.9"/><path class="st12" d="M2176.6 874.7l125.6 335.7"/><path class="st13" d="M1622.9 1173.6c25.4-14.7 62 1.1 81.7 35.3 19.7 34.1 15.1 73.7-10.3 88.4"/><path class="st12" d="M2448.7 1169.1c-5 17.9-15.9 34.3-31.9 45.9-23.8 17.3-53.5 20.3-79 11-5.7-22.4 10.9-49.2 39.9-62.7 26.8-12.4 55.8-9.4 71 5.8z"/><path class="st11" d="M2098.8 1396l-1.2-521.4"/><circle class="st12" cx="2128.1" cy="983.4" r="8.9"/><circle class="st12" cx="2128.1" cy="1093.2" r="8.9"/><circle class="st12" cx="2128.1" cy="1203" r="8.9"/><path class="st12" d="M1968.5 872.9l129.9 74.5 69.2-75.4"/></g><g id="LEGS_2_"><g id="RIGHT_3_"><path class="st14" d="M2401.1 2209.8l-231.2.1 15.5-49.5h214.7z"/><path class="st15" d="M2455.1 1637.4c35.8 59.2 46.1 130.4 28.7 197.3L2409 2122l-10 38.4h-213.5l15.8-50.3 88.9-288.1-254.5-417.6c19.8-2.2 40.6-4.3 62.1-6.1 88.2-7.6 161.4-10.5 207.6-8.7l149.7 247.8z"/></g><g id="LEFT_3_"><path class="st14" d="M2711.9 2209.8l-310.8.1-1-49.8.2.3 171-79.3c96.5 29.9 138.2 73.4 155.8 101.4 7.4 11.9-1.2 27.3-15.2 27.3z"/><path class="st15" d="M2571.3 2081.1l-171 79.3-454.6-622.2c-15-20.5-26.7-42.9-34.9-66.6-5.2-15-9-30.5-11.3-46.3 46.1-10.1 117.4-20 198.4-27 20.4-1.8 39.9-3.3 58.5-4.5l40.6 67.2 374.3 620.1z"/><path class="st16" d="M2070.6 1458.2l401.4 665.1m-429.8-690.9s-3 73.4-66.4 99.3"/></g><path id="SHADOW" class="st17" d="M2305.5 1389.6l23 38.2c-26.5 11.8-70.2 24-131.6 33.1-26.7 4-56.8 7.4-90.3 10-16.9 1.3-33 2.3-48.3 3.1-62.4 3.1-112 1.7-147.6-2.4-5.2-15-9-30.5-11.3-46.3 0 0 99.9-19 203.1-27.4s203-8.3 203-8.3z"/><path class="st13" d="M1841.9 1447.8c0-15.2 107.3-37.4 256-50.4 149.5-13.1 258.8-11.4 263.4 3.1"/></g><g id="HEAD_4_"><g id="NECK_1_"><path class="st18" d="M2108.2 874.7h-134.3l18.5-97.5h115.8z"/><path class="st10" d="M2007.3 874.7h-33.4l18.5-97.5h115.8v34.4z"/></g><path id="HAIR_2_" d="M1991.9 791.8s18.4-104.6 20.8-110.5c4.1-10 88.8-42.2 101.8-30.3s-13.3 22.5.8 21.4 56.6-32.7 74.4-8.6c10.8 14.7-24 35.9-46.3 40.2s-85 37.9-86.5 49.8c-1.5 11.9-21.6 35.7-65 38z" fill="#fff" stroke="#ffcf2d" stroke-width="5" stroke-miterlimit="10"/><g id="HEAD_5_"><path class="st18" d="M2143.4 702.2v88.6c0 13.8-11.2 24.9-24.9 24.9h-31.7c-16.5 0-29.8-13.4-29.8-29.9v-8.7h-15.4c-5 0-9.5-2-12.8-5.3-3.3-3.3-5.3-7.8-5.3-12.8 0-10 8.1-18.1 18.1-18.1h17.4c4.6-14.4 16.7-25.6 32.2-28.6l52.2-10.1z"/><path d="M2053.4 762.9c0-8.2-4.9-14.3-13-13m70.4-15.6s10.4-5.9 22.1-7" fill="none" stroke="#e57281" stroke-width="4" stroke-linecap="round" stroke-miterlimit="10"/><ellipse class="st10" cx="2125.2" cy="747.1" rx="4" ry="6.5"/></g></g><g id="ARMS"><g id="LEFT_2_"><path class="st9" d="M2048 1193.3l-23.6 9-2.1.8-16.2 6.1v-44.6h-195.9l43.6-74.1 1.8-3.1 21.5-8.1 4.2-1.6 16.5-6.3 3.2-1.2 25.4-9.7 4.2-1.6 16.2-6.1 4-1.5 17.4-6.6c.4-.2.8-.3 1.2-.4 1.3-.4 2.6-.7 3.9-.8 1.6-.2 3.2-.2 4.7-.1 4.8.4 9.3 2.5 12.8 5.8 2.4 2.2 4.3 5 5.5 8.2l51.7 135.9z"/><path class="st4" d="M2017.7 1107.1l-19.1-50.5c-1.3-3.4-3.3-6.4-5.7-8.7-4-3.9-9.4-6.3-15-6.7-1.8-.1-3.6-.1-5.3.2-1.7.2-3.4.7-5 1.3l-17.4 6.6-4.2 1.6-16 6.1-4.2 1.6-25 9.5-4.2 1.6-16.1 6.1-4.2 1.6-18.9 7.2-1.8 3.1-1.8 3.1 24.3-9.2 4.2-1.6 45.1-17.1 4.2-1.6 36.1-13.7 1.3-.5 1.8-.6c1.2-.3 2.3-.5 3.5-.6.6 0 1.1-.1 1.7-.1 7.9 0 15.4 4.8 18.4 12.7l50.7 133.8-19.5 7.4-2.1.8-2.1.8-15.4 5.8v4.8l17-6.4 27.8-10.6-33.1-87.8z"/><path class="st4" d="M2048 1193.3l-23.7 9-54.8-144.5c-2.5-6.5.8-13.8 7.3-16.3s13.8.8 16.3 7.3l54.9 144.5z"/><path class="st4" d="M2023 1205.1l-55.6-146.6c-2.9-7.7 1-16.3 8.6-19.2 3.7-1.4 7.8-1.3 11.4.3 3.6 1.6 6.4 4.6 7.8 8.3l55.6 146.6-27.8 10.6zm-41.6-162.2c-1.2 0-2.5.2-3.7.7-5.4 2-8.1 8.1-6 13.4l54 142.4 19.5-7.4-54-142.4c-1-2.6-2.9-4.7-5.5-5.8-1.4-.6-2.9-.9-4.3-.9zm-40 30.1c-2.4 0-5-.9-7.4-2.6-3.4-2.4-6.1-6.1-7.8-10.5-1.7-4.4-2.1-9.1-1.1-13.1 1-4.3 3.5-7.4 6.9-8.7 6.9-2.6 15.1 2.9 18.7 12.5.4 1.2-.1 2.5-1.3 2.9-1.2.4-2.5-.1-2.9-1.3-2.7-7-8.6-11.5-13-9.9-2 .8-3.5 2.7-4.1 5.5-.7 3.1-.4 6.8 1 10.4 1.4 3.6 3.6 6.6 6.2 8.5 2.4 1.7 4.8 2.2 6.8 1.4 1.2-.4 2.5.1 2.9 1.3.4 1.2-.1 2.5-1.3 2.9-1.2.5-2.4.7-3.6.7zm-49.7 18.1c-2.4 0-5-.9-7.4-2.6-3.4-2.4-6.1-6.1-7.8-10.5-1.7-4.4-2.1-9.1-1.1-13.1 1-4.3 3.5-7.4 6.9-8.7 3.4-1.3 7.3-.6 10.9 1.9 3.4 2.4 6.1 6.1 7.8 10.5.4 1.2-.1 2.5-1.3 2.9-1.2.4-2.5-.1-2.9-1.3-1.4-3.6-3.6-6.6-6.2-8.5-2.4-1.7-4.8-2.2-6.8-1.4-2 .8-3.5 2.7-4.1 5.5-.7 3.1-.4 6.8 1 10.4s3.6 6.6 6.2 8.5c2.4 1.7 4.8 2.2 6.8 1.4 1.2-.4 2.5.1 2.9 1.3.4 1.2-.1 2.5-1.3 2.9-1.2.6-2.4.8-3.6.8z"/><ellipse class="st21" cx="2006.3" cy="1233.9" rx="25.4" ry="69.3"/><path class="st18" d="M2097.5 1178.8v75c0 6-3.1 11.6-8.2 14.8l-32 19h-67.2c-5.7-12.7-9.3-32-9.3-53.5 0-15.5 1.9-29.9 5-41.4h64.4l-9.9-26.2c-2.9-7.5 4.1-15.1 11.8-13l32.6 8.6c7.6 2 12.8 8.8 12.8 16.7z"/><path class="st22" d="M2095.7 1230.4c0 6-3.1 11.6-8.2 14.8l-30.2 19m38.4-61.5c0 6-3.1 11.6-8.2 14.8l-30.2 19m38.4-59.8c0 6-3.1 11.6-8.2 14.8l-30.2 19m7.9-27.4l-15.1 9.4"/><path class="st10" d="M2031.7 1233.9c0 21.6-3.6 40.9-9.3 53.6h-32.3c-5.7-12.7-9.3-32-9.3-53.6 0-15.5 1.9-29.9 5-41.4h40.8c3.2 11.5 5.1 25.9 5.1 41.4z"/><path class="st12" d="M1885.6 1041.8l-71.9 121.1"/><path class="st13" d="M2005.4 1162.9c-14 0-25.4 34.1-25.4 72.9 0 38.8 11.4 70.2 25.4 70.2h-161"/></g><g id="RIGHT_2_"><g stroke="#3fb1b5" stroke-miterlimit="10"><path d="M2179.9 744.9l94.8 117.7-53.8 54.6-119.1-93c-3.5-3.4-.7-12.4 6.5-23.6 5.2-8.2 12.7-17.5 21.8-26.7 9.1-9.2 18.3-16.9 26.4-22.2 11-7.2 19.9-10.1 23.4-6.8z" fill="#3fb1b5" stroke-width="5" stroke-linecap="round"/><ellipse transform="rotate(-45.434 2247.915 890.022)" cx="2247.7" cy="890" rx="38.3" ry="14.3" fill="#fff" stroke-width="6"/></g><path class="st18" d="M2202.9 854.5v7.6c0 6.2-15.8 9.2-20.1 4.7l-37.4-39.2c-2.8-3-4.4-6.9-4.4-11V794c0-5.8 2.7-11.2 7.3-14.7l13.3-10.1c3.2-2.5 7.2-3.8 11.2-3.8h36.1c10 0 19.2 5.5 23.8 14.3l31.8 59.9h-46.9c-8.1.1-14.7 6.7-14.7 14.9z"/><path class="st22" d="M2263.8 839.7h-45.1c-8.2 0-14.9 6.7-14.9 14.9v7.6c0 6.2-14 9.2-18.3 4.7l-41.5-43.2"/><path class="st22" d="M2159.3 839.7c-2.8-2.9-4.3-6.7-4.3-10.7v-22c0-5.7 2.6-11 7.1-14.4l13-9.9c3.2-2.4 7-3.7 11-3.7h25.4"/><path class="st22" d="M2173.7 854.9c-2.8-2.9-4.3-6.7-4.3-10.7v-22c0-5.7 2.6-11 7.1-14.4l13-9.9c3.2-2.4 7-3.7 11-3.7h22.7"/><path class="st22" d="M2189.4 867.5c-2.6-2.7-4-6.2-4-9.9v-20.4c0-5.2 2.4-10.2 6.6-13.3l12-9.2c2.9-2.2 6.5-3.4 10.1-3.4h15.2"/></g></g></g><g id="_x32__CHARACTER"><g id="SHIRT"><path class="st25" d="M2963.2 1616.9H3355c79.2 0 153.2 39 198 104.2l179.5 264.4c14.8 21.5 1.4 50.8-24.7 50.8H3508l-79.8-104.3c-9.4-13.2-30.2-7.4-31.5 8.8l-16.1 196.4h-427.3l-36-199.7c-2.2-15.6-22.4-20.4-31.5-7.5l-73.3 94.4h-238.9L2760 1729c44.1-69.8 120.8-112.1 203.2-112.1z"/><path class="st7" d="M3201.9 1718.9l63.5 210.9h-156.9l69.7-210.9z"/><g class="st8"><path class="st9" d="M3151.3 1800.4v129.4h-4.2v-116.7l1.4-4.3zm40.5-81h4.2v210.4h-4.2zm48.9 128.3v82.1h-4.2v-96.1z"/><path class="st9" d="M3257.2 1902.5h-139.7l1.4-4.3h137zm-13.5-44.7h-111.4l1.4-4.3h108.7zm-13.4-44.7h-83.2l1.4-4.3h80.5zm-13.5-44.7h-54.9l1.4-4.3h52.2zm-13.5-44.7h-26.6l1.4-4.3h24z"/></g><path class="st25" d="M3230.3 1716.7l25.6 27.5 82.5-127.3h-73.1zm-75.9 0l-25.7 27.5-89.4-127.3h80z"/></g><g id="HAND_1_"><path class="st26" d="M3763.9 2060.5c0 49.8-35.5 97-90.7 105.1l-226.3 33.3-49.7 7.3v-192.4l15.3-3.6 220.8-52.4c42.6-10.1 87 7 111.8 43.1 12.9 18.6 18.8 39.3 18.8 59.6z"/><path class="st21" d="M3446.9 2198.9l-49.7 7.3v-192.4l15.3-3.6z"/></g><g id="LAPTOP"><path class="st18" d="M3397.2 2255.4h-475.7v-285.5c0-22.2 18-40.1 40.1-40.1H3357c22.2 0 40.1 18 40.1 40.1v285.5z"/><path class="st12" d="M3188.7 2115.4H3130c-6 0-10.8-4.8-10.8-10.8V2080c0-6 4.8-10.8 10.8-10.8h58.7c6 0 10.8 4.8 10.8 10.8v24.6c0 6-4.9 10.8-10.8 10.8z"/></g><g id="LEGS_1_"><g id="RIGHT_1_"><path id="LEG_1_" d="M3088.6 2252.3l503.6-75.3c98-14.9 186.3 61 186.3 160.2 0 89.5-72.5 162-162 162h-524.6l-3.3-246.9z" fill="#0096a0"/><g id="SHOES_1_"><path class="st28" d="M3020.5 2543.3l-303.1 58.5c-38.6 8.2-77.4-24-79.1-65.6l-4.5-110.6c-2.3-56 51.4-89.7 102-65.7l284.7 183.4z"/><path class="st29" d="M2737.9 2597.8c-37.3 7.8-75-23.5-76.8-64l-4.7-107.4c-2.4-54.4 49.4-86.8 98.4-63.4"/><path class="st7" d="M2735.8 2359.8l284.7 183.5-64.9 12.5z"/><path class="st30" d="M2845.5 2440.2l-37.5 74.7-37.1-87.8-42.9 98.6"/><path class="st30" d="M2725.9 2413.4l42 104.8 41.1-83.7 31.9 69.8"/></g></g><g id="LEFT_1_"><g id="LEG"><path class="st4" d="M3255.9 2406.2c-16.8-13.8-65.4 17.6-108.6 70.1-43.2 52.5-64.6 106.3-47.8 120.1-2.5-1.5-318.2-199.5-514.1-334.6-49.8-34.3-76.1-89.3-76.1-145 0-38.8 12.8-77.9 39.3-110.6 66.4-81.9 189.4-87.4 262.9-11.8l444.4 411.8z"/><ellipse transform="rotate(-50.563 3177.702 2501.318)" cx="3177.7" cy="2501.3" rx="123.1" ry="39.4" fill="#fe5244" stroke="#fff" stroke-width="6" stroke-miterlimit="10"/></g><g id="SHOES"><path class="st28" d="M3394.9 2579l-56.2 95.4c-28.5 48.3-92.9 49.2-122.4 1.6l-94.6-152.4c8.1-13.4 18.1-27.4 29.6-41.4 20.8-25.3 42.9-45.7 62.1-58.5L3364 2481c36.8 14.1 52 62.1 30.9 98z"/><path class="st29" d="M3348.1 2474.8c34.8 13.5 47.1 58.6 27.2 93.1l-53 91.5c-26.8 46.4-87.5 47.2-115.4 1.6"/><path class="st30" d="M3163.3 2523.7l76.6-38.8-23 92.3 91.6-56.2"/><path class="st30" d="M3246 2614.2l23.8-107.5-78.1 38.5 12-71.4"/></g></g></g><g id="HEAD_3_"><path id="HEAD_2_" class="st26" d="M3305.7 1634.2c-.4 6.4-3.2 12.1-7.6 16.2-4.4 4.1-10.2 6.6-16.6 6.6h-22.1l-1.4 23.3c-1.2 19.2-20.3 38.8-40.2 38.8h-55.9c-19.8 0-39-19.6-40.2-38.8l-1.4-23.3h-22.4c-6.4 0-12.3-2.5-16.6-6.6-4.4-4.1-7.2-9.8-7.6-16.3-.8-14 10.7-25.6 24.7-25.6h18.9l-2.1-35.5c-.4-7.5 5.5-13.8 13-13.8h123.4c7.5 0 13.4 6.3 13 13.8l-2.1 35.5h19.1c13.8.1 24.9 11.8 24.1 25.7z"/><path id="HAIR_1_" class="st21" d="M3262.4 1608.5h20.1s19.2-69.7.7-87.6c-18.5-17.9-132.1-59.1-168.8-33.4-26.8 18.8-12.2 121-12.2 121h14.8s59.7-42.8 69.1-39.1c9.4 3.7-27 21.7-19.7 25.2 27.3 13.1 76.4-34.4 87.7-34.4s8.3 48.3 8.3 48.3z"/><g id="FACE"><path class="st22" d="M3237.1 1625.8s-13.1-10.6-29.9-3.7m3.1 60.7s-7.2 15.4-29 7.4m-43.8-67.9s26.5-5.9 34.5 10.5c4.9 10.1 2.5 45.4 8.2 45.8 5.7.4 14.3 0 14.3 0"/><ellipse class="st21" cx="3219.2" cy="1645.2" rx="4.7" ry="7.8"/><ellipse class="st21" cx="3158.4" cy="1645.2" rx="4.7" ry="7.8"/><path class="st22" d="M3112.4 1637.8c-.6-9.8-8.7-17.4-18.5-17.4m172 17.9c.6-10.4 9.2-18.5 19.5-18.5"/></g></g></g><g id="_x31__CHARACTER"><g id="HEAD_1_"><path class="st18" d="M1787.4 1831.9c0-6.5-.3-12.8-.8-18.7-6.1-2.7-44.6-21.2-54.3-54.5 0 0-29.2 59.1-72.6 52.3-.1 0-.2 0-.3-.1h-.1l-10.5-5.4c-.2-.1-.3-.2-.5-.2-11.9-5.7-25.6 1.7-28 14.1-2.8-7.8-4.8-16.1-6-24.8-7.7-58.2 24.4-106.9 77.7-106.9 48.6 0 95.3 45.7 102.7 94 3 18.3-.1 35.4-7.3 50.2zm-158.5 7c-4.7 27.6-107.7-10.9-130.6 35.2-14.9 30.1 8.1 66.4-56.6 69.5-77.1 3.6-108.4 45.8-95.9 143.6l210.6-111.7 58.8-52.4 25.6-78.7-11.9-5.5z" id="HAIR"/><g id="NECK"><path class="st10" d="M1748.9 1903.9v27.4l-65.1 39.4-68.6-47.5 25.6-78.7z"/><path class="st17" d="M1652.6 1850.7l31.2 120 65.1-39.4v-27.4z"/></g><g id="HEAD"><path class="st10" d="M1787.4 1832.5c0 44.7-28.7 81-64.1 81-29 0-54.7-24.3-63.1-57.7l-29.3-15c-3.3-1.7-6-4.2-7.9-7.3-1.9-3-2.9-6.6-2.9-10.3 0-14.8 15.6-24.3 28.8-17.6l10.9 5.5v-.1c43.4 6.7 72.6-52.3 72.6-52.3 9.7 33.3 48.2 51.7 54.3 54.5.5 6.1.7 12.5.7 19.3z"/><path class="st32" d="M1787.2 1823.2s-16.1-6.7-26 3.3c-12.3 12.4-9.6 48-9.6 48m-22.2-53.4s-13.3-1-26.5 6m-52.2 3.9c-1.1-6.6-5.9-12-12.3-14"/><ellipse transform="rotate(-74.835 1720.411 1844.038)" class="st17" cx="1720.5" cy="1844.1" rx="7.8" ry="4.7"/><ellipse transform="rotate(-74.835 1769.41 1846.038)" class="st17" cx="1769.5" cy="1846.1" rx="7.8" ry="4.7"/><path class="st32" d="M1746.7 1886.5s-17.3 4.6-22.3-10"/></g></g><g id="BLOUSE"><path class="st14" d="M1487.2 1975.8h389.5c53.4 0 101.9 31.5 123.5 80.4l73.6 151.4-660.7 319.9-212.9-91.2 115.9-339.2c25.6-72.7 94.1-121.3 171.1-121.3z"/><path class="st7" d="M1669.8 2042.6l-32.3-19.1 44.8-51h3.2l45.4 47.6-31.5 19.1 135.2 278.6-256.7 125.5z"/><g class="st8"><path class="st9" d="M1616.2 2276.3v113.4h-4v-96zm42.1-183.9v297.2h-4v-279.8l2.5-10.8.9-4zm0-92.7v36.1l-4-2.3v-29.2zm42.2-11.4v395.1l-4 1.9v-401.2zm42.2 140.1v234.3l-4 2v-244.5zm42.2 86.9v126.8l-4 2V2207zm42.1 86.9v19.3l-4 1.9V2294z"/><path class="st9" d="M1686.6 2390.2l-8.2 4h-89.2l.9-4zm86.2-42.2l-8.2 4h-165.8l1-4zm57.9-38.2h-222.2l.9-4h219.4zm-20.4-42.1h-192.1l.9-4h189.2zm-20.5-42.2h-162l1-4h159.1zm-20.5-42.2h-131.8l.9-4h129zm-20.4-42.1h-101.7l.9-4h98.8zm-20.5-42.2h-71.6l.9-4h68.8zm-20.4-42.2h-41.5l.9-4h38.6zm17.7-42.1h-80.5l3.5-4h73.2z"/></g><path fill="none" stroke="#fe5244" stroke-width="5" stroke-miterlimit="10" d="M1473.3 2192.8l-31.4 106"/><path fill="#fff" stroke="#fe5244" stroke-width="5" stroke-linejoin="round" stroke-miterlimit="10" d="M1803.9 1975.6l-74.1 42.4-44.3-45.5h-3.2l-43.8 49-82.1-45.9 59.8-52.4 67.6 47.5 65.1-39.4z"/></g><g id="BOOK"><path class="st4" d="M2200.5 2099.8l-77.6 246.6h-472l77.6-246.6z"/><path class="st11" d="M1901.9 2346.4l77.6-246.6"/><path d="M1737.4 2099.8s59.1-35.1 144.7-29.7c85.6 5.3 97.6 29.7 97.6 29.7h-242.3zm446 0s-111.4-49.2-203.7 0h203.7z" fill="#fff" stroke="#3fb1b5" stroke-width="5" stroke-linecap="round" stroke-miterlimit="10"/></g><g id="LEGS"><g id="RIGHT"><path class="st10" d="M1967.4 2604.2L1738 2785.4c-27.4 21.6-31 61.8-7.9 87.9l157.6 178.8s15-11.1 10-55.7c-7-61.7 10-119.4 10-119.4l339.5-242.1c52.5-37.4 84.1-97.6 85-162.1 1.3-87.6-104.9-132-166.4-69.7l-198.4 201.1z"/><path class="st15" d="M1907.6 2876.9s-16.9 57.7-10 119.4c5 44.7-10 55.8-10 55.8L1730 2873.3c-23.1-26.2-19.4-66.3 7.9-87.9l73.6-58.2c2.2-1.6 4.4-3.3 6.6-5l93.6-74 55.6-44s-3.1 73.1 31.3 207.8l-91 64.9z"/><path class="st18" d="M1901.3 3002.3c1.9 17.3.7 29.8-1.6 38.6-.5 2.1-1.1 3.9-1.8 5.6-3.9 10.3-9 13.7-9 13.7l-163.4-185.3c-21.2-24.1-20.6-59.6-.3-82.9 2.5-2.9 5.4-5.7 8.6-8.2l5.3-4.2 46-36.3c-3 20 9.9 53.5 34.7 85.1 31.4 40 73.1 61.3 91.3 50.3-2.9 10.6-16.2 66.5-9.8 123.6z"/><path class="st9" d="M1899.8 3040.9c-.5 2.1-1.1 3.9-1.8 5.6l-162.2-184c-12-13.6-17.7-31.1-16.1-49.2.7-7.5 2.6-14.8 5.6-21.4 2.5-2.9 5.4-5.7 8.6-8.2l5.3-4.2c-8.3 9.5-13.4 21.3-14.5 34.2-1.5 16.7 3.8 32.9 14.9 45.5l160.2 181.7zm4.7-131.8s-44-17.5-49.9 0c-5.8 17.5 46.6 28.6 46.6 28.6l3.3-28.6z"/></g><g id="LEFT"><path class="st10" d="M2185.4 2366.9v547.9c-63.7 64.7-148.3 29.9-148.3 29.9-74.7-215-69.7-334.4-69.7-334.4l-55.6 43.9c-142.2-88.8-153.8-293.1-154.1-298l231.7-112.1c90.7-43.9 196 22.1 196 122.8z"/><path class="st16" d="M1989.5 2244c90.6-43.8 195.9 22.2 195.9 122.8v547.9c-63.7 64.7-148.3 29.9-148.3 29.9-74.6-215-69.7-334.5-69.7-334.5"/><g id="SKIRT"><path class="st7" d="M1911.8 2654.1l-93.6 74c-167.8 132.7-414.6 13.2-414.6-200.7l354.1-171.4v.1c.3 5 12 209.3 154.1 298z"/><g class="st8"><path class="st9" d="M1447.8 2506.1v166.1c-1.4-2-2.7-4-4-6V2508l4-1.9zm42.2-20.4v233.7c-1.3-1.2-2.7-2.4-4-3.6v-228.2l4-1.9zm42.1-20.4v284.1c-1.3-.8-2.7-1.5-4-2.3v-279.9l4-1.9zm42.2-20.4v323.9c-1.3-.5-2.7-.9-4-1.4v-320.5l4-2zm42.2-20.4V2780c-1.3-.2-2.7-.5-4-.7v-352.8l4-2zm42.1-20.5v379.8c-1.3 0-2.7 0-4-.1V2406l4-2zm42.2-20.4v397c-1.3.2-2.7.4-4 .6v-395.6l4-2zm42.2-20.4v406.7c-1.3.5-2.7.9-4 1.4v-406.1l4-2zm42.1 120.9v266.5c-1.3.8-2.7 1.5-4 2.2v-280.4c.2.7.4 1.4.7 2 .4 1.3.9 2.7 1.3 4 .7 1.9 1.4 3.8 2 5.7zm42.2 86V2721l-4 3.2v-160.3c1.3 2 2.6 4.1 4 6.2zm42.2 51v68.2h-2.1l-1.9 1.5v-73.7c1.3 1.4 2.6 2.7 4 4z"/><path class="st9" d="M1743.7 2769.6c-.3.1-.5.2-.8.3-1.3.5-2.7.9-4 1.4-2.5.8-5 1.6-7.6 2.4h-142.2c-4.2-1.2-8.4-2.6-12.6-4h167.2zm75.4-42.2l-.9.7-4.2 3.3h-309.2c-1.8-1.3-3.5-2.6-5.2-4h319.5zm53.3-42.1l-3 2.3v1.7h-408.8c-1.1-1.3-2.2-2.7-3.2-4h415zm28.8-38.2h-468.5c-.7-1.3-1.4-2.7-2.1-4h465c1.8 1.4 3.7 2.7 5.6 4zm-47.2-42.2h-438.8c-.4-1.3-.8-2.7-1.2-4h436.6c1 1.4 2.2 2.7 3.4 4zm-31.4-42.1h-416.7c-.2-1.3-.3-2.7-.5-4h414.7c.9 1.3 1.7 2.6 2.5 4zm-22.6-42.2h-382.1l8.3-4h372c.5 1.3 1.1 2.7 1.8 4zm-16.8-42.2H1505l8.3-4h268.6c.3 1.4.8 2.7 1.3 4zm-12.4-42.1H1592l8.3-4h169.5c.4 1.3.7 2.6 1 4zm-8.6-42.2h-83.1l8.3-4h74.2c.2 1.3.4 2.6.6 4z"/></g><path class="st11" d="M1757.7 2356.1c.3 5 11.9 209.3 154.1 298.1"/></g><path class="st9" d="M2185.4 2719v195.8c-63.7 64.7-148.3 29.9-148.3 29.9-32.7-94.2-50.1-170.1-59.4-225.6h207.7z"/><path class="st16" d="M2037 2944.6c-32.7-94.2-50.1-170.1-59.4-225.6h207.7v195.8"/><path class="st18" d="M2334.7 3058.1h-295.5c-13.8 0-24.3-12.3-22.1-25.9l.5-3 1.8-10.8 12.8-78.4s90.1 36.3 156.5-31.1c0 0 20.8 53.6 107.6 93 20.4 9.3 30 23.1 34.5 34.8.7 1.7 1.2 3.4 1.7 5 2.7 9.4 2.2 16.4 2.2 16.4z"/><path class="st9" d="M2332.5 3041.6h-293.3c-7.3 0-14.2-3.2-18.9-8.8-1-1.2-1.9-2.4-2.6-3.7l1.8-10.8c.3 4.1 1.9 8.1 4.7 11.3 3.8 4.4 9.3 7 15.1 7h291.6c.6 1.7 1.2 3.4 1.6 5zm-98-77.2c-32.8 23.4-83.3 16.7-86.7 6.6-3.5-10 48.9-17.3 55.8-38.1 7.3 9.1 16.7 20.1 30.9 31.5z"/><path class="st16" d="M1967.4 2610.2c0-117.5 31-185.7 31-185.7"/></g></g><g id="HAND"><path class="st10" d="M1683.8 2241.9l-410.4 96.5c-52 12.2-88.7 58.6-88.7 112 0 84.9 88.9 140.6 165.3 103.5l397.1-192.8c6.8-3.3 12.2-9.1 14.9-16.2l44-112.9c1.8-4.5-2-9.3-6.9-8.6l-7 1c-11.1 1.6-21.1 7.7-27.6 16.9l-17.9 26.8c-3.3 4.9-8.8 7.8-14.7 7.8H1690c-8.5 0-14.6-8.3-12-16.4l5.8-17.6z"/><path class="st11" d="M1679.8 2242.9l-406.4 96.5c-52 12.2-88.7 58.6-88.7 112 0 84.9 88.9 140.6 165.3 103.5l397.1-192.8c6.8-3.3 12.2-9.1 14.9-16.2l44-112.9c1.8-4.5-2-9.3-6.9-8.6l-7 1c-11.1 1.6-21.1 7.7-27.6 16.9l-17.9 26.8c-3.3 4.9-8.8 7.8-14.7 7.8H1686c-8.5 0-14.6-8.3-12-16.4l5.8-17.6z"/><path class="st13" d="M1696 2308.9h61.3c10.1 0 19.3-5.5 24.2-14.4m-99.5 50.4h61.3c10.1 0 19.3-5.5 24.2-14.4"/></g></g></svg>