<svg version="1.1" id="Слой_1" xmlns="http://www.w3.org/2000/svg" x="0" y="0" viewBox="0 0 5000 3500" xml:space="preserve"><style>.st0,.st2{fill:none;stroke:#66b0f0;stroke-width:6;stroke-miterlimit:10}.st2{stroke:#ffcf2d}.st3{fill:#fff}.st4{fill:#66b0f0}.st5{fill:#fff;stroke:#ffcf2d;stroke-width:5;stroke-miterlimit:10}.st6{fill:#ffcf2d}.st7{fill:#fff;stroke:#fe5244;stroke-width:6;stroke-miterlimit:10}.st8{fill:#fe5244}.st10{fill:#3fb1b5}.st11,.st12{fill:#fff;stroke:#66b0f0;stroke-width:6;stroke-miterlimit:10}.st12{fill:none;stroke:#ffcf2d;stroke-width:5}.st13{fill:#a0505a}.st14{fill:#73325a}.st16{fill:#e57281}.st17{fill:#9a3b82}.st19{fill:none;stroke:#fe5244;stroke-miterlimit:10}.st19,.st20{stroke-width:6}.st20,.st21{fill:none;stroke-miterlimit:10}.st20,.st21{stroke:#fff;stroke-linecap:round}.st21{stroke:#73325a;stroke-width:5}</style><path class="st0" d="M3928.5 3059H969.1m258.5 53.6h1694.7" id="FLOOR"/><g id="TABLE"><path d="M3776 2393.9h-473.3c-22.4 0-40.6 18.2-40.6 40.6V3059h554.4v-624.5c.1-22.4-18.1-40.6-40.5-40.6z" fill="#d0f0e4"/><path class="st2" d="M3776 2393.9h-473.3c-22.4 0-40.6 18.2-40.6 40.6V3059h554.4v-624.5c.1-22.4-18.1-40.6-40.5-40.6z"/><path class="st2" d="M3198.3 1692.3h683v1366.6h-683zm700.9-171.1H1556.9v171.1h2474"/><path class="st2" d="M3776 2013.5h-472.4c-22.4 0-40.6-18.2-40.6-40.6v-166.8c0-22.4 18.2-40.6 40.6-40.6H3776c22.4 0 40.6 18.2 40.6 40.6V1973c0 22.4-18.2 40.5-40.6 40.5zm0 302h-472.4c-22.4 0-40.6-18.2-40.6-40.6v-166.8c0-22.4 18.2-40.6 40.6-40.6H3776c22.4 0 40.6 18.2 40.6 40.6v166.8c0 22.4-18.2 40.6-40.6 40.6z"/><circle class="st0" cx="3541.4" cy="1887.4" r="32.5"/><circle class="st0" cx="3541.4" cy="2190.3" r="32.5"/></g><g id="BACKET"><path class="st3" d="M3744.3 2601.9l-.7 4.3-.3 2.5-10.4 66.3-1.1 7.1-4.7 30.2-1.7 10.6-4.4 28-1.1 7.1-10.7 68.6v.3l-1.1 7.1-.6 3.2-10.2 65.6-1.1 7.1-4.8 30.9v.1l-1.7 10.6-4.3 27.2-1.1 7.1-10.7 68.9-.1.4-.5 3.2-.1.7h-281l-.1-.8-.5-2.8-.1-.9-10.8-68.8-1.1-7.2-4.2-26.7-1.6-10.7-4.9-31.4-1.1-7.1-10.2-65.1-.6-3.7-1.1-7v-.1l-10.8-68.9-1.1-7.1-4.3-27.5-1.6-10.6-4.8-30.7-1.1-7.1-10.3-65.8-1.1-7.1z"/><path class="st4" d="M3675.6 3062.1h-286.4l-1.2-7.4-71.2-455.9h431.1l-72.3 463.3zm-281.1-6.2h275.7l70.4-450.8H3324l70.5 450.8z"/><path class="st4" d="M3748.2 2601.9c0 1.4-.2 2.9-.7 4.3-3.4 10.5-19 20.2-43.5 28.2-1.8.6-3.6 1.1-5.4 1.7-15.8 4.7-34.7 8.8-56 11.9-2 .3-4 .6-6.1.9-18.8 2.6-39.3 4.5-61 5.6-2.2.1-4.3.2-6.5.3-11.9.5-24.2.8-36.7.8-9.6 0-19.1-.2-28.4-.5l-6.9-.3c-25-1-48.6-3.1-70-6.1-2.6-.4-5.1-.7-7.6-1.1-36.3-5.5-65.5-13.6-83.4-23.3-10.4-5.6-16.9-11.7-19-18.1l-.6-4.2c0-29.6 96.6-53.5 215.8-53.5 118.5 0 214.7 23.7 215.8 53.1.2 0 .2.1.2.3z"/><path class="st4" d="M3673.7 3054.8v4l-.7-.5-.1.6h-2.6l-31.9-41.2-3.3-4.3-32.1-41.4-3.3-4.3-32.1-41.4-3.3-4.3-32.1-41.4-3.3-4.3-32.1-41.4-3.3-4.3-32-41.4-3.3-4.3-32.1-41.4-3.3-4.3-32-41.4-3.3-4.3-32-41.4-3.3-4.3-30.7-39.6-.5-2.9c2 6.3 8.4 12.3 18.6 17.8l15.8 20.4 3.3 4.3 32.1 41.4 3.3 4.3 32.1 41.4 3.3 4.3 32.1 41.4 3.3 4.3 32.1 41.4 3.3 4.3 32.1 41.4 3.3 4.3 32.1 41.4 3.3 4.3 32.1 41.4 3.3 4.3 32.1 41.4 3.3 4.3 31.9 41.2-.1.2zm11.7-76.1l-1.1 7.1-10.6-13.7-3.3-4.3-32.1-41.4-3.3-4.3-32.1-41.4-3.3-4.3-32.1-41.4-3.3-4.3-32.1-41.4-3.3-4.3-31.8-41-3.3-4.3-32.1-41.4-3.3-4.3-32.1-41.4-3.3-4.3-1.4-1.8c2.4.4 4.9.7 7.4 1.1l.5.7 32.1 41.4 3.3 4.3 32.1 41.4 3.3 4.3 32.1 41.4 3.3 4.3 32.1 41.4 3.3 4.3 32.1 41.4 3.3 4.3 32.1 41.4 3.3 4.3 32.1 41.4 3.3 4.3 8.2 10.5zm11.9-75.9l-1.1 7.1-22.5-29-3.3-4.3-32.1-41.4-3.3-4.3-32.1-41.4-3.3-4.3-32.1-41.4-3.3-4.3-32.1-41.4-3.3-4.3-31.3-40.4c2.3.1 4.5.2 6.8.3l27.8 35.8 3.3 4.3 32.1 41.4 3.3 4.3 32.1 41.4 3.3 4.3 32.1 41.4 3.3 4.3 32.1 41.4 3.3 4.3 20.3 26.2zm11.9-75.9l-1.1 7.1-2.3-3-32.1-41.4-3.3-4.3-32.1-41.4-3.3-4.3-32.1-41.4-3.3-4.3-31.3-40.4c2.1-.1 4.3-.2 6.4-.3l28.2 36.4 3.3 4.3 32.1 41.4 3.3 4.3 32.1 41.4 3.3 4.3 32.1 41.4.1.2zm-245.6 230.5l-2 1.5-.1.1h-3.3l-32-41.2-3.3-4.3-32-41.4-3.3-4.2-12.5-16.1-1.6-10.7 17.4 22.5 3.3 4.3 32 41.3 3.3 4.3 32.1 41.4zm-70.8 0l-1 .8-.5-2.8zm141.5 0l-2 1.5-.1.1h-3.3l-31.9-41.2-3.3-4.3-32.1-41.4-3.3-4.2-32.1-41.4-3.3-4.2v-.1l-32-41.3-3.3-4.3-30.3-39.1-.6-3.7-1.1-7 3.2 4.2 32.1 41.4 3.3 4.2 32 41.4 3.3 4.3 32.1 41.3 3.3 4.3 32.1 41.3 3.3 4.3 32 41.4zm70.7 0l-2 1.5-.1.1h-3.3l-31.9-41.2-3.3-4.3-32.1-41.4-3.3-4.2-32-41.4-3.3-4.2-32.1-41.4-3.3-4.3-32.1-41.3-3.3-4.3-32-41.4-3.3-4.2-32.1-41.4-3.3-4.2-12.8-16.6-1.6-10.6 17.7 22.9 3.3 4.3 32.1 41.3 3.3 4.3 32 41.3 3.3 4.3 32.1 41.4 3.3 4.2 32.1 41.4 3.3 4.3 32 41.3 3.3 4.3 32.1 41.3 3.3 4.3 32 41.4zm116-306.5l-1.1 7.1-10.8-14-3.3-4.3-32.1-41.4-3.3-4.3-32.1-41.4-3.3-4.3-.4-.5c2-.3 4-.6 5.9-.9l1.1 1.4 32.1 41.4 3.3 4.3 32.1 41.4 3.3 4.3 8.6 11.2zm11.9-75.9l-1.1 7.1-22.7-29.3-3.3-4.3-10.1-13.1c1.8-.5 3.6-1.1 5.3-1.7l8.1 10.5 3.3 4.3 20.5 26.5zm14.3-71.5l-2.8 3.6-.8-1c.5-1.4.7-2.8.7-4.2v-.5l.1-.1 2.8 2.2z"/><path class="st4" d="M3727.1 2712.3l-1.7 10.6-13 16.9-3.3 4.2-32.1 41.4-3.3 4.2-32 41.4-3.3 4.3-32.1 41.3-3.3 4.3-32 41.4-3.3 4.2-32.1 41.4-3.3 4.2-32 41.4-3.3 4.3-32 41.2h-3.3l-.1-.1-1.9-1.5 1.9-2.5 32.1-41.4 3.3-4.3 32-41.3 3.3-4.3 32.1-41.3 3.3-4.3 32-41.4 3.3-4.2 32.1-41.4 3.3-4.3 32-41.3 3.3-4.3 32.1-41.3 3.3-4.3zm16.2-103.6l-30.9 39.9-3.3 4.3-32.1 41.4-3.3 4.3-32.1 41.4-3.3 4.3-32.1 41.4-3.3 4.3-31.9 41-3.3 4.3-32.1 41.4-3.3 4.3-32.1 41.4-3.3 4.3-32.1 41.4-3.3 4.3-32.1 41.4-3.3 4.3-31.9 41.2h-2.4l-.1-.8-.4-2.8-.4-.5.3-.4 31.8-41 3.3-4.3 32.1-41.4 3.3-4.3 32.1-41.4 3.3-4.3 32.1-41.4 3.3-4.3 32.1-41.4 3.3-4.3 32.1-41.4 3.3-4.3 32.1-41.4 3.3-4.3 32.1-41.4 3.3-4.3 32-41.4 3.3-4.3 15.7-20.3c10.3-5.5 16.8-11.5 18.9-17.9l-.7 3zm-100.3 38.1l-1.4 1.8-3.3 4.3-32.1 41.4-3.3 4.3-32.1 41.4-3.3 4.3-32.1 41.4-3.3 4.3-32.1 41.4-3.3 4.3-32.1 41.4-3.3 4.3-32.1 41.4-3.3 4.3-32.1 41.4-3.3 4.3-10.5 13.5-1.1-7.1 8.3-10.7 3.3-4.3 32-41.4 3.3-4.3 32.1-41.4 3.3-4.3 32-41.4 3.3-4.3 32.1-41.4 3.3-4.3 32.1-41.4 3.3-4.3 32.1-41.4 3.3-4.3 32.1-41.4.5-.7c1.7-.2 3.4-.5 5-.7 1.1-.2 1.9-.3 2.7-.4zm-76.1 7l-31.3 40.3-3.3 4.3-32.1 41.4-3.3 4.3-32.1 41.4-3.3 4.3-32.1 41.4-3.3 4.3-32.1 41.4-3.3 4.3-22.3 28.8-1.1-7.1 20.1-26 3.3-4.3 32.1-41.4 3.3-4.3 32.1-41.4 3.3-4.3 32.1-41.4 3.3-4.3 32.1-41.4 3.3-4.3 27.8-35.8c2.2 0 4.5-.1 6.8-.2zm124.5 287.1l-1.7 10.6-12.7 16.4-3.3 4.2-32 41.4-3.3 4.3-32 41.2h-3.3l-.1-.1-1.9-1.5 1.9-2.5 32.1-41.4 3.3-4.3 32-41.3 3.3-4.3zm16.1-103.7l-30.5 39.4-3.3 4.3-32 41.4-3.3 4.2-32.1 41.4-3.3 4.2-32 41.4-3.3 4.3-32 41.2h-3.3l-.1-.1-1.9-1.5 1.9-2.5 32.1-41.4 3.3-4.3 32-41.3 3.3-4.3 32.1-41.3 3.3-4.3 32-41.4 3.3-4.2 32.1-41.4 3.3-4.3.1-.1v.3l-1.1 7.1zm-211.3-183.5l-31.3 40.4-3.3 4.3-32.1 41.4-3.3 4.3-32.1 41.4-3.3 4.3-32.1 41.4-2.1 2.8-1.1-6.9-.1-.1.1-.1 32-41.3 3.3-4.3 32-41.4 3.3-4.3 32.1-41.4 3.3-4.3 28.2-36.4c2.3 0 4.4.1 6.5.2zm-66.2-5.7l-.4.6-3.3 4.3-32.1 41.4-3.3 4.3-32.1 41.4-3.3 4.3-10.7 13.8-1.1-7.1 8.5-11 3.3-4.3 32-41.4 3.3-4.3 32.1-41.4 1.1-1.4c1.6.2 3.3.5 5 .7l1 .1zm-61-12.6l-10.2 13.1-3.3 4.3-22.6 29.1-1.1-7.1 20.4-26.3 3.3-4.3 8.2-10.5c1.7.6 3.5 1.2 5.3 1.7z"/><path class="st5" d="M3764.9 2543.2h-92.3v-28.1h56c17.5 0 32.1 12 36.3 28.1z"/><path class="st5" d="M3729.2 2515.1c-26.2.3-49.1 17.8-56.1 43.1l-21.3 77.3c-3 .5-6.1 1-9.2 1.4-2 .3-4 .6-6.1.9-18.8 2.6-39.3 4.5-61 5.6-2.2.1-4.3.2-6.5.3-11.9.5-24.2.8-36.7.8-9.6 0-19.1-.2-28.4-.5l-6.9-.3c-.9 0-1.8-.1-2.7-.1l23.6-85.4c7-25.5 30.2-43.1 56.7-43.1h154.6z"/></g><g id="LAMP"><path class="st6" d="M3666 848.8l236.1 672.4h-864.6l229.8-672.4z"/><path class="st0" d="M3468.5 768.7c0-28 22.7-50.7 50.7-50.7h29.3c28 0 50.7 22.7 50.7 50.7v656.1"/><path class="st7" d="M3667.3 1499.8v20.3h-213.8v-20.3c0-17.3 5.9-33.3 15.8-46 13.7-17.6 35.2-29 59.2-29h63.7c1 0 2.1 0 3.1.1 40.1 1.6 72 34.5 72 74.9z"/><path class="st8" d="M3714.8 851.6h-494.7v-15.5c0-37.1 30.1-67.1 67.1-67.1h360.5c37.1 0 67.1 30.1 67.1 67.1v15.5z"/><path fill="none" stroke="#fff" stroke-width="5" stroke-linecap="round" stroke-miterlimit="10" d="M3714.8 839.2h-494.7"/><path class="st3" d="M3663.1 851.6c0 17.7-11 32.1-24.7 32.1h-346.2c-13.6 0-24.7-14.4-24.7-32.1h395.6z"/><path class="st7" d="M3599.2 1444.4c0 32.1-29.3 58.2-65.4 58.2-32.5 0-59.5-21.1-64.5-48.8 13.7-17.6 35.2-29 59.2-29h63.7c1 0 2.1 0 3.1.1 2.6 6.1 3.9 12.7 3.9 19.5z"/><path class="st8" d="M3535.6 1411.1v31.4c0 6.4-5.9 11.6-13.1 11.6-7.2 0-13.1-5.2-13.1-11.6v-31.4h.2c1.2 5.5 6.5 9.7 12.8 9.7 6.3 0 11.6-4.2 12.8-9.7h.4z"/><path class="st7" d="M3532.8 1410c0 .7-.1 1.4-.2 2.1-.9 5-5.1 8.7-10.2 8.7-5 0-9.2-3.7-10.2-8.7-.1-.7-.2-1.4-.2-2.1 0-6 4.6-10.8 10.4-10.8 5.7 0 10.4 4.9 10.4 10.8z"/></g><g id="BOOKS"><path class="st10" d="M3158 1065.4h34.2v455.8H3158z"/><path class="st5" d="M3143.7 1521.2h-58.6c-6.2 0-11.2-5-11.2-11.2v-338.8c0-6.2 5-11.2 11.2-11.2h58.6c6.2 0 11.2 5 11.2 11.2V1510c0 6.2-5 11.2-11.2 11.2z"/><path class="st0" d="M3332.2 1513.9h-67.3c-4.9 0-9.1-3.5-10-8.3l-60.4-313.8c-1.2-6.3 3.6-12.1 10-12.1h67.3c4.9 0 9.1 3.5 10 8.3l60.4 313.8c1.2 6.3-3.6 12.1-10 12.1z"/><path class="st8" d="M3060.5 1521.2h-317c-7.4 0-13.4-6-13.4-13.4v-64.9c0-7.4 6-13.4 13.4-13.4h317c7.4 0 13.4 6 13.4 13.4v64.9c0 7.4-6 13.4-13.4 13.4z"/></g><g id="NOTES"><path class="st5" d="M1873.4 408.8v206.8c0 40.5-32.9 73.4-73.4 73.4h-229.3c40.5 0 73.4-32.8 73.4-73.4V408.8h229.3z"/><path class="st8" d="M1749 388.8h18.5v44.1H1749z"/><path class="st6" d="M1806.7 487.4c-2.6 0-5.2-1-7.3-2.9l-7.7-6.8c-2.4-2.1-5.6-2.1-8 0l-7.3 6.5c-4.3 3.8-10.3 3.8-14.7 0l-6.7-5.9c-2.4-2.1-5.6-2.1-8 0l-6.2 5.5c-4.3 3.8-10.3 3.8-14.7 0l-5.1-4.5c-2.4-2.1-5.6-2.1-8 0l-5.5 4.9c-4.3 3.8-10.3 3.8-14.7 0l-5.1-4.5c-2.4-2.1-5.6-2.1-8 0-1 .9-2.6.8-3.5-.2-.9-1-.8-2.6.2-3.5 4.3-3.8 10.3-3.8 14.7 0l5.1 4.5c2.4 2.1 5.6 2.1 8 0l5.5-4.9c4.3-3.8 10.3-3.8 14.7 0l5.1 4.5c2.4 2.1 5.6 2.1 8 0l6.2-5.5c4.3-3.8 10.3-3.8 14.7 0l6.7 5.9c2.4 2.1 5.6 2.1 8 0l7.3-6.5c4.3-3.8 10.3-3.8 14.7 0l7.7 6.8c2.4 2.1 5.6 2.1 8 0l8-7.1c4.3-3.8 10.3-3.8 14.7 0 1 .9 1.1 2.5.2 3.5-.9 1-2.5 1.1-3.5.2-2.4-2.1-5.6-2.1-8 0l-8 7.1c-2.4 1.9-4.9 2.9-7.5 2.9zm0 41.1c-2.6 0-5.2-1-7.3-2.9l-7.7-6.8c-2.4-2.1-5.6-2.1-8 0l-7.3 6.5c-4.3 3.8-10.3 3.8-14.7 0l-6.7-5.9c-2.4-2.1-5.6-2.1-8 0l-6.2 5.5c-4.3 3.8-10.3 3.8-14.7 0l-5.1-4.5c-2.4-2.1-5.6-2.1-8 0l-5.5 4.9c-4.3 3.8-10.3 3.8-14.7 0l-5.1-4.5c-2.4-2.1-5.6-2.1-8 0-1 .9-2.6.8-3.5-.2-.9-1-.8-2.6.2-3.5 4.3-3.8 10.3-3.8 14.7 0l5.1 4.5c2.4 2.1 5.6 2.1 8 0l5.5-4.9c4.3-3.8 10.3-3.8 14.7 0l5.1 4.5c2.4 2.1 5.6 2.1 8 0l6.2-5.5c4.3-3.8 10.3-3.8 14.7 0l6.7 5.9c2.4 2.1 5.6 2.1 8 0l7.3-6.5c4.3-3.8 10.3-3.8 14.7 0l7.7 6.8c2.4 2.1 5.6 2.1 8 0l8-7.1c4.3-3.8 10.3-3.8 14.7 0 1 .9 1.1 2.5.2 3.5-.9 1-2.5 1.1-3.5.2-2.4-2.1-5.6-2.1-8 0l-8 7.1c-2.4 2-4.9 2.9-7.5 2.9zm0 41.1c-2.6 0-5.2-1-7.3-2.9l-7.7-6.8c-2.4-2.1-5.6-2.1-8 0l-7.3 6.5c-4.3 3.8-10.3 3.8-14.7 0l-6.7-5.9c-2.4-2.1-5.6-2.1-8 0l-6.2 5.5c-4.3 3.8-10.3 3.8-14.7 0l-5.1-4.5c-2.4-2.1-5.6-2.1-8 0l-5.5 4.9c-4.3 3.8-10.3 3.8-14.7 0l-5.1-4.5c-2.4-2.1-5.6-2.1-8 0-1 .9-2.6.8-3.5-.2-.9-1-.8-2.6.2-3.5 4.3-3.8 10.3-3.8 14.7 0l5.1 4.5c2.4 2.1 5.6 2.1 8 0l5.5-4.9c4.3-3.8 10.3-3.8 14.7 0l5.1 4.5c2.4 2.1 5.6 2.1 8 0l6.2-5.5c4.3-3.8 10.3-3.8 14.7 0l6.7 5.9c2.4 2.1 5.6 2.1 8 0l7.3-6.5c4.3-3.8 10.3-3.8 14.7 0l7.7 6.8c2.4 2.1 5.6 2.1 8 0l8-7.1c4.3-3.8 10.3-3.8 14.7 0 1 .9 1.1 2.5.2 3.5-.9 1-2.5 1.1-3.5.2-2.4-2.1-5.6-2.1-8 0l-8 7.1c-2.4 2-4.9 2.9-7.5 2.9zm0 41.2c-2.6 0-5.2-1-7.3-2.9l-7.7-6.8c-2.4-2.1-5.6-2.1-8 0l-7.3 6.5c-4.3 3.8-10.3 3.8-14.7 0l-6.7-5.9c-2.4-2.1-5.6-2.1-8 0l-6.2 5.5c-4.3 3.8-10.3 3.8-14.7 0l-5.1-4.5c-2.4-2.1-5.6-2.1-8 0l-5.5 4.9c-4.3 3.8-10.3 3.8-14.7 0l-5.1-4.5c-2.4-2.1-5.6-2.1-8 0-1 .9-2.6.8-3.5-.2-.9-1-.8-2.6.2-3.5 4.3-3.8 10.3-3.8 14.7 0l5.1 4.5c2.4 2.1 5.6 2.1 8 0l5.5-4.9c4.3-3.8 10.3-3.8 14.7 0l5.1 4.5c2.4 2.1 5.6 2.1 8 0l6.2-5.5c4.3-3.8 10.3-3.8 14.7 0l6.7 5.9c2.4 2.1 5.6 2.1 8 0l7.3-6.5c4.3-3.8 10.3-3.8 14.7 0l7.7 6.8c2.4 2.1 5.6 2.1 8 0l8-7.1c4.3-3.8 10.3-3.8 14.7 0 1 .9 1.1 2.5.2 3.5-.9 1-2.5 1.1-3.5.2-2.4-2.1-5.6-2.1-8 0l-8 7.1c-2.4 1.9-4.9 2.9-7.5 2.9z"/><path class="st4" d="M1949.1 408.8h160.4v160.4h-160.4z"/><path transform="rotate(51.056 1957.188 411.686)" class="st6" d="M1948.1 384.5h18.5V439h-18.5z"/><path transform="rotate(128.944 2102.483 411.717)" class="st6" d="M2093.4 384.5h18.5V439h-18.5z"/><path class="st3" d="M1978.3 446.8h97.3v6h-97.3zm0 25.9h97.3v6h-97.3zm0 26h97.3v6h-97.3zm0 25.9h97.3v6h-97.3z"/></g><g id="COMPUTER"><path class="st11" d="M2722.6 1521.2h-373.9l72.4-160 10.6-23.5h207.9l29.2 64.5z"/><path class="st4" d="M2668.8 1402.2l-247.7-41 10.6-23.5h207.9z"/><path class="st11" d="M2976.3 1337.7h-880.1c-32.3 0-58.4-26.2-58.4-58.4V704.8c0-32.3 26.2-58.4 58.4-58.4h880.1c32.3 0 58.4 26.2 58.4 58.4v574.4c0 32.3-26.2 58.5-58.4 58.5z"/><path class="st4" d="M2712.6 1297.1h-352.8c-17.2 0-31.1-13.9-31.1-31.1v-42.7c0-17.2 13.9-31.1 31.1-31.1h352.8c17.2 0 31.1 13.9 31.1 31.1v42.7c0 17.2-14 31.1-31.1 31.1z"/><path class="st3" d="M2620 1268.6h-23.8c-5.9 0-10.7-4.8-10.7-10.7v-18.6c0-5.9 4.8-10.7 10.7-10.7h23.8c5.9 0 10.7 4.8 10.7 10.7v18.6c0 5.9-4.8 10.7-10.7 10.7zm30.3-3.1l-8.8-5.6c-2.4-1.5-3.9-4.2-3.9-7.1v-8.4c0-2.9 1.5-5.6 3.9-7.1l8.8-5.6c2.1-1.3 4.8.2 4.8 2.6v28.5c.1 2.5-2.7 4-4.8 2.7zm-120.5-6.3h-2.2c-8.7 0-15.8-7.1-15.8-15.8v-9.3c0-.8.7-1.5 1.5-1.5h30.7c.8 0 1.5.7 1.5 1.5v9.3c.1 8.7-7 15.8-15.7 15.8zm-15-23.6v7.8c0 7 5.7 12.8 12.8 12.8h2.2c7 0 12.8-5.7 12.8-12.8v-7.8h-27.8zm13.9 40.9c-.8 0-1.5-.7-1.5-1.5v-11.3c0-.8.7-1.5 1.5-1.5s1.5.7 1.5 1.5v11.3c0 .8-.7 1.5-1.5 1.5z"/><path class="st3" d="M2536.6 1276.5h-15.7c-.8 0-1.5-.7-1.5-1.5s.7-1.5 1.5-1.5h15.7c.8 0 1.5.7 1.5 1.5s-.7 1.5-1.5 1.5zm-7.2-24.3h-1.4c-5 0-9-4-9-9V1225c0-5 4-9 9-9h1.4c5 0 9 4 9 9v18.2c0 5-4 9-9 9zm-92-11.3l-.1.1c-1.9 2.3-1.3 5.8 1.2 7.9l9.2 7.4c2.5 2 6.1 1.8 8-.5l.1-.1c1.9-2.3 5.5-2.4 7.9-.3l8.3 7.5c2.6 2.4 2.6 6.4 0 8.2-8.7 6.1-20 3.9-29.3-3.6l-14-11.3c-9.3-7.6-13.8-18.2-9.7-28 1.3-3 5.2-3.8 8-1.7l9.1 6.6c2.5 2 3.1 5.5 1.3 7.8zm24.4 5.8c-.8 0-1.4-.6-1.5-1.4-.5-7.2-6.7-12.7-13.9-12.2-.8 0-1.5-.6-1.6-1.4-.1-.8.6-1.5 1.4-1.6 8.9-.6 16.5 6.2 17.1 15 .1.8-.5 1.5-1.5 1.6.1 0 .1 0 0 0z"/><path class="st3" d="M2471.2 1245.2c-.8 0-1.4-.6-1.5-1.4-.4-6-3.1-11.6-7.7-15.6s-10.4-6-16.4-5.6c-.8 0-1.5-.6-1.6-1.4-.1-.8.6-1.5 1.4-1.6 6.8-.4 13.4 1.8 18.6 6.3s8.2 10.8 8.7 17.6c.1 1-.6 1.7-1.5 1.7.1 0 .1 0 0 0z"/><circle class="st12" cx="2809.4" cy="690.1" r="10.4"/><circle class="st12" cx="2851.9" cy="690.1" r="10.4"/><circle class="st12" cx="2894.5" cy="690.1" r="10.4"/><path class="st0" d="M2499.2 1166.6h-313.4c-9.6 0-17.3-7.8-17.3-17.3V981.5c0-9.6 7.8-17.3 17.3-17.3h313.4c9.6 0 17.3 7.8 17.3 17.3v167.8c0 9.5-7.7 17.3-17.3 17.3z"/><path class="st10" d="M2894.5 1166.6h-313.4c-9.6 0-17.3-7.8-17.3-17.3V981.5c0-9.6 7.8-17.3 17.3-17.3h313.4c9.6 0 17.3 7.8 17.3 17.3v167.8c0 9.5-7.7 17.3-17.3 17.3z"/><path class="st8" d="M2835.3 1166.1h-204.8c20.7-25.5 52.3-41.9 87.7-41.9h29.4c35.4.1 67 16.4 87.7 41.9z"/><path class="st3" d="M2726.5 1124.3c-2 15.1-14.9 26.7-30.5 26.7-11.5 0-21.5-6.3-26.8-15.6 14.8-7.1 31.4-11.1 48.9-11.1h8.4zm60.5 7c-4.5 11.5-15.6 19.6-28.7 19.6-15.6 0-28.5-11.6-30.5-26.7h19.9c13.8.1 27 2.5 39.3 7.1z"/><path class="st13" d="M2764.5 1079.7v45.4c0 7.1-14.2 12.8-31.6 12.8-3.2 0-6.3-.2-9.2-.5-13-1.6-22.4-6.5-22.4-12.3v-45.4h63.2z"/><path class="st14" d="M2760.3 1089c0 19.7-17.2 43.6-36.6 48.3-13-1.6-22.4-6.5-22.4-12.3v-45.4h58l1 9.4z"/><path class="st13" d="M2780.7 1073.9v1.1c0 7.7-6.3 14-14 14h-13.4a38.31 38.31 0 01-34.8 22.1h-2.6c-17.2 0-31.1-13.9-31.1-31.1v-32.1c19.9 1.3 45.2-16.1 45.2-16.1 8.3 32.1 32 31.7 43 29.6 4.5 2.3 7.7 7.1 7.7 12.5z"/><path class="st14" d="M2761 1078.8c-.8 0-1.5-.7-1.5-1.5 0-6.4 5.2-11.6 11.6-11.6.8 0 1.5.7 1.5 1.5s-.7 1.5-1.5 1.5c-4.7 0-8.6 3.8-8.6 8.6 0 .8-.7 1.5-1.5 1.5z"/><path class="st6" d="M2764.5 1089h2.2c7.7 0 14-6.3 14-14v-1.1c0-5.5-3.1-10.2-7.7-12.5-3 .6-7.1 1-11.5.7-11.4-.9-25.5-7.1-31.5-30.3 0 0-25.3 17.4-45.2 16.1-3.7-.2-7.2-1.1-10.3-2.9-16.5-9.4 23.4-53.4 69.2-46.8 36.6 5.3 35.8 49.1 35.1 59.5 1.8-.2 3.6-.3 5.4-.3 26.8 0 48.5 20.6 48.5 46.1 0 16.6-9.2 31.2-23.1 39.3-13.3-8.8-28.6-14.8-45.1-17.3V1089z"/><path class="st14" d="M2705 1079.9c-.2 0-.4 0-.5-.1-.8-.3-1.2-1.2-.9-1.9 0-.1 3-8.2-2-16.9-4.3-7.5-13.8-6.2-14.2-6.1-.8.1-1.6-.4-1.7-1.3-.1-.8.4-1.6 1.3-1.7.5-.1 11.9-1.7 17.3 7.6 5.7 9.9 2.3 19.1 2.2 19.4-.4.6-.9 1-1.5 1zm34.1-19c-.3 0-.6-.1-.9-.3-8.7-6.7-20.3-5.9-20.4-5.9-.8.1-1.5-.6-1.6-1.4-.1-.8.6-1.5 1.4-1.6.5 0 12.8-.9 22.4 6.5.7.5.8 1.4.3 2.1-.4.4-.8.6-1.2.6z"/><path class="st3" d="M2699.8 1083.3s2.4 15.8 18.7.4c0 0-11.4 1.5-18.7-.4z"/><ellipse class="st14" cx="2724.9" cy="1065.3" rx="2.1" ry="4.7"/><ellipse class="st14" cx="2693.7" cy="1065.3" rx="1.8" ry="3.9"/><path class="st4" d="M2890.6 937.3h-313.4c-9.6 0-17.3-7.8-17.3-17.3V752.2c0-9.6 7.8-17.3 17.3-17.3h313.4c9.6 0 17.3 7.8 17.3 17.3V920c0 9.5-7.8 17.3-17.3 17.3z"/><path class="st6" d="M2826.8 937.3h-191.3c19.3-25.7 48.8-42.1 81.9-42.1h27.5c33.1 0 62.6 16.4 81.9 42.1z"/><path class="st3" d="M2721 928.7h4.3c18.7 0 33.9-15.2 33.9-33.9v-24.1c0-.1-.1-.2-.2-.2h-62.9c-.1 0-.2.1-.2.2v33.1c.1 13.8 11.3 24.9 25.1 24.9z"/><path class="st6" d="M2696 870.5v33.8c.9 18.6 47.2 11.3 61.1-33.8H2696z"/><path class="st3" d="M2777.5 856c0 4-1.6 7.6-4.3 10.3-2.6 2.6-6.2 4.2-10.3 4.2h-13.7c-4.9 13-17.5 22.2-32.2 22.2h-10.7c-14.9 0-26.9-12.1-26.9-26.9v-42c15.4 1.3 28.4-11.1 28.9-11.6-.2.7-8 22.7 9.7 23.9 17.6 1.2 23.4-11.5 23.6-12 0 .5.1 17.5 14 18.4h7.3c8.1 0 14.6 5.5 14.6 13.5z"/><path class="st8" d="M2756.9 842.5h-1.2c-13.9-.9-14-17.8-14-18.4-.2.5-6.1 13.2-23.6 12-17.6-1.2-9.9-23.2-9.7-23.9-.5.4-13.5 12.9-28.9 11.6-3.4-.3-6.8-1.2-10.3-3.1-22.5-12.2-8-37.3 14.1-37.6 17.6-.2 25.1 9.4 25.1 9.4s3.8-19.7 25.4-16.3c21.6 3.4 17.7 22.5 17.7 22.5s18.1-8.4 28.1 7.1c11.8 18.2-5.9 36.7-22.7 36.7z"/><path class="st6" d="M2697.8 860.8h-.4c-.8-.2-1.3-1-1.1-1.8 0-.1 2.4-10-1.9-18.1-4.7-8.6-12.8-7.2-13.1-7.2-.8.1-1.6-.4-1.7-1.2-.2-.8.4-1.6 1.2-1.7.1 0 10.6-1.9 16.3 8.7 4.9 9.1 2.3 19.8 2.2 20.2-.3.6-.9 1.1-1.5 1.1zm5.3 11.6c-2.1 0-4-.3-5.4-.7-.8-.2-1.3-1-1.1-1.8.2-.8 1-1.3 1.8-1.1.5.1 11.9 3.1 16.1-5.7.4-.7 1.2-1.1 2-.7s1.1 1.2.7 2c-2.9 6.3-9 8-14.1 8z"/><ellipse class="st6" cx="2717.6" cy="844.1" rx="2.1" ry="4.7"/><ellipse class="st6" cx="2686.5" cy="844.1" rx="1.8" ry="3.9"/><path class="st6" d="M2755.4 861.5c-.8 0-1.5-.7-1.5-1.5 0-6.4 5.2-11.6 11.6-11.6.8 0 1.5.7 1.5 1.5s-.7 1.5-1.5 1.5c-4.7 0-8.6 3.8-8.6 8.6 0 .8-.7 1.5-1.5 1.5z"/><g><path class="st6" d="M2495.2 937.3h-313.4c-9.6 0-17.3-7.8-17.3-17.3V752.2c0-9.6 7.8-17.3 17.3-17.3h313.4c9.6 0 17.3 7.8 17.3 17.3V920c.1 9.5-7.7 17.3-17.3 17.3z"/><path class="st3" d="M2419.5 937.3h-194.4c19.6-29.3 49.6-48 83.2-48h28c33.6 0 63.5 18.7 83.2 48z"/><path d="M2419.5 937.3h-194.4c.6-.9 1.2-1.7 1.8-2.6.1-.2.2-.4.4-.5h190.1c.1.2.2.3.4.5.5.8 1.1 1.7 1.7 2.6zm-8.2-10.9h-178c.9-1.1 1.8-2.1 2.7-3.1h172.6c.9 1 1.8 2 2.7 3.1zm-11-11.4h-156c1.2-1.1 2.4-2.1 3.6-3.1h148.8c1.2 1 2.4 2 3.6 3.1zm-16.8-12.5H2261c1.8-1.1 3.7-2.1 5.6-3.1h111.2c2 1 3.8 2 5.7 3.1z" fill="#feb040"/><path class="st16" d="M2353.3 851.9v44.7c0 4.6-14.2 8.3-31.6 8.3-17 0-30.9-3.5-31.6-8v-45h63.2z"/><path class="st17" d="M2352.9 851.9v1c0 22-27.3 47.2-47 50.1-3.1.5-12.7-1.4-15.7-6.2v-45h62.7z"/><path class="st16" d="M2370.5 837.8v1c0 7.7-6.3 14-14 14h-12.1c-3.9 14-16.7 24.2-31.9 24.2h-12.9c-14.3 0-26-11.6-26-26v-56.9c24 6.7 66.9.4 66.9.4s-3.9 14 3.5 29.2h12.6c7.6.1 13.9 6.4 13.9 14.1z"/><path d="M2356 822h-11.4c-9.7-16.4-4.2-27.3-4.2-27.3s-42.9 6.2-66.9-.4c-10.9-3-17.9-8.7-15.3-18.8 8.3-32.4 97.7 2.1 103.9 13.8 6.3 11.7-6.1 32.7-6.1 32.7z" fill="#fff" stroke="#feb040" stroke-width="4" stroke-miterlimit="10"/><path class="st17" d="M2311.6 852.7c-.3.3-.6.4-1 .4s-.8-.2-1.1-.5l-1.4-1.5c-4.3 3.8-8.4 5.7-12.2 5.7-.4 0-.8 0-1.1-.1-4.2-.4-6.3-3.2-6.4-3.3-.5-.7-.4-1.6.3-2.1s1.6-.4 2.1.3c.1.1 1.5 1.9 4.4 2.2 3.2.3 6.9-1.4 10.9-4.9l-.8-.9c-.6-.6-.5-1.6.1-2.1.6-.6 1.6-.5 2.1.1l4.2 4.6c.6.6.5 1.5-.1 2.1zm15.2-29.8c-.4 0-.8-.1-1.1-.4-8.8-8.6-20-6.9-20.1-6.9-.8.1-1.6-.4-1.7-1.2-.1-.8.4-1.6 1.2-1.7.5-.1 12.8-2.1 22.7 7.7.6.6.6 1.5 0 2.1-.2.3-.6.4-1 .4zm-34.1 21c-.1 0-.3 0-.4-.1-.8-.2-1.2-1.1-1-1.9 0-.1 3.1-10.3-1.9-19-4.3-7.5-14-5.2-14.1-5.1-.8.2-1.6-.3-1.8-1.1-.2-.8.3-1.6 1.1-1.8 4.1-1 13.1-1 17.4 6.6 5.7 9.9 2.4 20.9 2.2 21.4-.3.6-.8 1-1.5 1z"/><ellipse class="st17" cx="2281.5" cy="828.3" rx="1.8" ry="3.9"/><ellipse class="st17" cx="2312.6" cy="828.3" rx="2.1" ry="4.7"/><path class="st17" d="M2348.7 842.9c-.8 0-1.5-.7-1.5-1.5 0-6.5 5.3-11.8 11.8-11.8.8 0 1.5.7 1.5 1.5s-.7 1.5-1.5 1.5c-4.9 0-8.8 3.9-8.8 8.8 0 .8-.6 1.5-1.5 1.5z"/></g></g><g id="WOMAN"><g id="LEGS"><g id="RIGHT_LEG"><path class="st13" d="M2863.5 2729.4c-2.7-.8-4.2-1.2-4.2-1.2l-32.7 107.1-123.1-32.3c-1-.9-1.5-1.4-1.5-1.4s-498.5-390.7-524.7-578.2C2151.2 2035.9 2360 1858 2360 1858s445.3 841.7 500.4 869.2c1.1.6 2.2 1.3 3.1 2.2z"/><path class="st14" d="M2465.4 2054.9c-15.6 83.5-70.4 252.6-127.1 416.2-84-90.5-151.8-181.8-161-247.8-16.6-118.8 61.3-233.9 120.5-302.1 21.7-17.4 45.1-33.4 70.4-47.7 15.5 29.1 51.4 96.5 97.2 181.4z"/><path class="st7" d="M3143.3 2801.5L2960.2 2919l-53.1-8-48.9 31 15.8 32.4-80.5 51.7c-106.7-97.1-91.6-223.4-91.6-223.4l124.6 32.7 32.7-107.1s111.9 32.7 194.5 29.9c82.8-2.8 89.6 43.3 89.6 43.3z"/><path class="st19" d="M2935.2 2742.6s-7.7-81.4-27-76.3c-19.3 5.2 4.9 86.4 26.6 77.5 21.7-8.9 43.4-66.6 43.4-66.6M2721 2918.9l122.7 1.9 60.9-36.4 57.8 9.3 173.3-108.2m-225.9-47.5l-11.4 53.1m36.2-47.1l-11.4 53.1m37.3-48.8l-11.4 53.1"/></g><g id="LEFT_LEG"><path class="st13" d="M2317.7 1817.1s73.3 34.2 73.3 159.6c0 121.2-279.8 863.4-279.8 863.4l-86.1 73-87.4-95.7c42.7-40.6-79.9-774.6 380-1000.3z"/><path class="st7" d="M2309.9 3055.3l-217.6.2-40.4-35.4-57.9-.3-4.2 35.8-85.3.1c-46.4-144.4 33.6-238.4 33.6-238.4l86.8 95.6 86.7-72.9s75.2 88.2 146.2 130.4c71.2 42.3 52.1 84.9 52.1 84.9z"/><path class="st19" d="M2161.2 2891.4s85.4-55.1 61.1-76.2c-24.3-21.1-73.2 70.5-59.9 77.8s105.4-20.4 105.4-20.4M1893 2928l102.1 64.4h70.9l44.9 37.7h200.7m-169.4-159.5l-38.4 38.4m56-19.9l-38.4 38.4m57.8-20.8l-38.4 38.4"/></g></g><g id="SKIRT"><path class="st8" d="M2317.7 1817.1c-172.9 84.8-263.5 241.6-311.4 406.3h-524.7c-134.3 0-234.4-123.9-206.1-255.2l38.5-178.8h912.3c33.8 0 65.2 10.2 91.4 27.7z"/><path class="st13" d="M1928.1 1988.5l188.9-.4-28 45.9z"/><path class="st20" d="M2318.7 1816.1c-86 42.2-151.6 102.2-201.8 172.1h-478.7c-86.3 0-150.7-79.3-133.1-163.8l7.3-35m494.6 433.9c19.1-65.7 44.9-130.2 80-189.3l-158.9-45.6"/></g><g id="BLOUSE"><path class="st10" d="M1191.4 1309.1l96.1 377h-179.3c-104.4 0-171.6-110.9-123.2-203.4l137.7-263.3c39-74.5 116.1-121.2 200.2-121.2h32.5c-110.4-.1-191.3 103.9-164 210.9z"/><path class="st10" d="M2298 1211.3c56.5 0 103.5-7.5 114.9-18l-175.3 380c-31.7 68.8-100.6 112.8-176.3 112.8-22.2 0-44-3.8-64.6-11.1-20.6-7.3-40-18-57.3-32l-110.5-89.2s-11 64.7-89.5 81.2v154.2h-425.5L1191.4 1309c-27.3-107 53.6-211.1 164-211.1h297.9c26.3 0 52.2 3.3 77.2 9.7 68.4 17.4 129.8 57.6 173.2 115.2l145.6 193.2 130.8-228.6c0 .2-.1.5-.1.7.1 13.3 53 23.2 118 23.2z"/><path class="st20" d="M1190.4 1309.1l94.1 380m545.4-130.2l-83.6-89"/><path class="st8" d="M2415.5 1187.7l-2.6 5.6c-11.4 10.6-58.4 18-114.9 18-65 0-117.9-9.9-117.9-23 0-.2 0-.5.1-.7 1.8-12.8 54-23.8 117.9-23.8 63.8 0 115.6 11 117.4 23.9 0-.1 0-.1 0 0z"/></g><g id="ARM"><path class="st13" d="M2467.9 995.7c0 5.7-1.4 11.3-4 16.2-2.6 4.9-6.4 9.2-11.1 12.5l-2.3 1.6-17.9 95.5c-2.9 15.5-12.1 29.2-25.4 37.7l-24.5 15.6-19.4 12.4-9 21.5c-16.7 1.7-35.8 2.7-56.2 2.7-20.6 0-40-1-56.9-2.8v-148.1c0-6.4 1.4-12.7 4.1-18.5l32.6-70.2s35.6 8.8 19.2 52.5c-14.9 39.7 19.1 29.5 38.2 22.4 17.1-6.4 91.8-44.4 121-58.3 5.4-2.6 11.6 1.4 11.6 7.3z"/><path class="st21" d="M2436.7 1085.2c-2.9 15.5-12.1 29.1-25.4 37.6l-43.9 28m76.5-106.1c-2.9 15.5-12.1 29.1-25.4 37.6l-43.9 28m72.7-83.2l-70.6 44.8"/><path class="st14" d="M2386.5 1172.3l-3.9 2.5-19.4 12.4-9 21.5c-16.7 1.7-35.8 2.7-56.2 2.7-20.6 0-40-1-56.9-2.8V1167c16.9-2 36.3-3.1 56.9-3.1 35.3-.1 66.9 3.2 88.5 8.4z"/></g><g id="HEAD"><g id="NECK"><path class="st13" d="M1721.2 1105.3c-14.5 19.5-68.5 65.4-250.3 65.4-233.9 0-84.2-72.4-84.2-72.4l99.2-165.7 106.4 65.3v52.5c0 26.5 21.5 47.9 47.9 47.9h6.9c24.8-.1 50.4 1 74.1 7z"/><path class="st14" d="M1592.2 997.8v13.4l-205.6 87 99.2-165.7z"/></g><g id="HEAD_1_"><path class="st13" d="M1597.8 1004.3h22.6c20.8 0 37.7-16.9 37.7-37.7V840.7h-134.9v89c0 41.2 33.4 74.6 74.6 74.6z"/><path class="st21" d="M1655.2 959.3c-14.5 0-20.3-10-20.3-10"/><ellipse class="st14" cx="1642.1" cy="909.7" rx="4.8" ry="9.3"/></g><path id="HAIR" d="M1548.9 853.8s111.3 67.2 147.5 8.7c31.8-51.3-109.1-77.7-158.3-77.9-53.5-.2-124.4 23.5-123.2 102.2 1 64.8 3.7 159.6-34.7 143.1-136.6-58.6-258 2.6-258.4 119.2-.4 116.6 134.9 127.5 138.3 97.4 3.5-30-84-23.1-72.2 54.8 11.7 77.9 63.9 175.3 183.1 175.3 144 .1 235.7-189.5 146.6-208.8-68.3-14.8 69.6 117 110.5-20 44-147.5-115-195.8-118.9-284.9s39.7-109.1 39.7-109.1z" fill="#ffcf2d" stroke="#fff" stroke-width="5" stroke-miterlimit="10"/><g id="GLASSES"><path class="st19" d="M1541.1 907.3h79.6"/><ellipse class="st19" cx="1645.2" cy="910.3" rx="22.6" ry="29"/></g><g id="HEADPHONES"><path class="st0" d="M1498.9 871.6v-84.2c0-12.6 10.2-22.9 22.9-22.9h25c12.6 0 22.9 10.2 22.9 22.9"/><path class="st11" d="M1523 964.3h-48.1c-12.3 0-22.3-10-22.3-22.3v-48.1c0-12.3 10-22.3 22.3-22.3h48.1c12.3 0 22.3 10 22.3 22.3V942c-.1 12.3-10 22.3-22.3 22.3z"/><path class="st11" d="M1510.5 948.4H1487c-10.1 0-18.4-8.2-18.4-18.4v-23.5c0-10.1 8.2-18.4 18.4-18.4h23.5c10.1 0 18.4 8.2 18.4 18.4V930c0 10.2-8.2 18.4-18.4 18.4z"/><path class="st0" d="M1519.8 890.5l-41.8 55.6m28-57.5l-36.2 48m58.1-36.2l-36.2 48m37.2-30.1l-22.7 30.1m-14.9-59.8l-22.6 29.9"/></g></g></g><g id="CHAIR"><path class="st0" d="M1463.3 2280.3v55.1c0 26.6-21.6 48.2-48.2 48.2h-123.6m217.9-102.7v505.5m-223.8 162.1c0-89.5 88.9-162.1 198.5-162.1h49.8c109.6 0 198.5 72.6 198.5 162.1"/><path class="st6" d="M1990.3 2288.6h-726c-36.4 0-65.8-29.5-65.8-65.8h809l-17.2 65.8z"/><circle class="st6" cx="1281.2" cy="3002.1" r="53.6"/><path class="st6" d="M1253.9 2397.3h107.6c8.8 0 15.9-7.1 15.9-15.9v-1.2c0-8.8-7.1-15.9-15.9-15.9h-107.6c-8.8 0-15.9 7.1-15.9 15.9v1.2c0 8.8 7.1 15.9 15.9 15.9z"/><path class="st2" d="M1198.5 2224.8h515.1L1541.3 1742c-12-33.5-43.7-55.9-79.3-55.9h-378.7c-37.6 0-63.8 37.2-51.2 72.6l166.4 466.1z"/><path class="st2" d="M1224 2224.8h447.8L1505.3 1758c-11.6-32.4-42.2-54-76.6-54h-383.4"/><circle class="st6" cx="1731.5" cy="3002.1" r="53.6"/></g></svg>