<svg version="1.1" id="Слой_1" xmlns="http://www.w3.org/2000/svg" x="0" y="0" viewBox="0 0 5000 3500" xml:space="preserve"><style>.st1{fill:#fff;stroke:#66b0f0;stroke-width:6;stroke-miterlimit:10}.st2{fill:#66b0f0}.st4{fill:none;stroke:#66b0f0;stroke-width:6;stroke-miterlimit:10}.st5{fill:#ffcf2d}.st6{fill:#fff}.st8{fill:none;stroke:#66b0f0;stroke-width:4;stroke-linecap:round;stroke-miterlimit:10}.st9{fill:#e57281}.st10{fill:#9a3b82}.st11{fill:#3fb1b5}.st13,.st15{stroke-width:6;stroke-miterlimit:10}.st13{fill:none;stroke:#fff;stroke-linecap:round}.st15{fill:#fff;stroke:#ffcf2d}.st16,.st18{fill:none;stroke-width:6}.st16,.st18,.st20{stroke-miterlimit:10}.st16{stroke:#ffcf2d;stroke-linecap:round}.st18{stroke:#fe5244}.st20{fill:none;stroke:#9a3b82;stroke-width:5;stroke-linecap:round}.st21{fill:#fe5244}.st22{fill:#fff;stroke:#3fb1b5;stroke-width:5;stroke-miterlimit:10}.st24{fill:#a0505a}.st25{fill:#73325a}.st26{fill:#fff;stroke:#ffcf2d;stroke-width:6;stroke-linecap:round;stroke-miterlimit:10}</style><path id="FLOOR" fill="#d0f0e4" d="M4374 2996H626l672.8-397.3h2412.7z"/><g id="LAPTOP"><path class="st1" d="M2774.9 1053.7h-674.3V663.8c0-26.4 21.4-47.8 47.8-47.8h578.7c26.4 0 47.8 21.4 47.8 47.8v389.9z"/><path class="st2" d="M2724 1028.3h-569.7c-15 0-27.2-12.2-27.2-27.2V666.9c0-15 12.2-27.2 27.2-27.2H2724c15 0 27.2 12.2 27.2 27.2v334.3c0 15-12.2 27.1-27.2 27.1z"/><path d="M2893.1 1145.2c25.8 16.8 19.8 49.7-10.7 49.7h-918.6c-25.7 0-34.5-34.7-9.3-50.6l938.6.9z" fill="#66b0f0" stroke="#66b0f0" stroke-width="6" stroke-miterlimit="10"/><path class="st1" d="M2882.4 1172h-918.6c-16.4 0-22.9-19.3-9.3-27.7l146.3-90.6H2773l120 91.5c12 9.1 5 26.8-10.6 26.8z"/><path class="st1" d="M2776.4 1144.7h-706.6c-12.6 0-17.6-14.9-7.2-21.3l101.6-69.7h528l92.3 70.4c9.3 7 3.9 20.6-8.1 20.6z"/><path class="st4" d="M2646.5 1053.7l92.4 91m-141.4-91l81.4 91m-127.2-91l70.6 91m-121.8-91l59.7 91m-102.2-91l29.1 91m-280-91l-92.4 91m141.4-91l-81.4 91m127.2-91l-70.6 91m121.8-91l-59.7 91m102.2-91l-29.1 91"/><path class="st1" d="M2424.4 1145.8v-92.1"/><path class="st4" d="M2114.7 1087.7h622.2"/><g id="SHIRT"><path class="st5" d="M2676.6 1028.3h-505.9l9.1-64.5c5.6-39.7 34.1-72.3 72.6-83.3l123.3-25.6h95.9l123.3 25.6c38.6 10.9 67.1 43.6 72.6 83.3l9.1 64.5z"/><path class="st6" d="M2457.8 928.6l-36.5-36.9c-.8-.8-.8-2.1 0-2.8.8-.8 2.1-.8 2.8 0l33.5 33.9 52-58.9c.7-.8 2-.9 2.8-.2.8.7.9 2 .2 2.8l-54.8 62.1z"/><path class="st6" d="M2390 928.6l-54.8-62.1c-.7-.8-.7-2.1.2-2.8.8-.7 2.1-.7 2.8.2l52 58.9 33.5-33.9c.8-.8 2-.8 2.8 0 .8.8.8 2 0 2.8l-36.5 36.9zm34.5 24.1c-4.8 0-8.7-3.9-8.7-8.7 0-4.8 3.9-8.7 8.7-8.7s8.7 3.9 8.7 8.7c0 4.8-3.9 8.7-8.7 8.7zm0-13.4c-2.6 0-4.7 2.1-4.7 4.7s2.1 4.7 4.7 4.7 4.7-2.1 4.7-4.7-2.1-4.7-4.7-4.7zm0 62.4c-4.8 0-8.7-3.9-8.7-8.7 0-4.8 3.9-8.7 8.7-8.7s8.7 3.9 8.7 8.7c0 4.8-3.9 8.7-8.7 8.7zm0-13.4c-2.6 0-4.7 2.1-4.7 4.7s2.1 4.7 4.7 4.7 4.7-2.1 4.7-4.7-2.1-4.7-4.7-4.7z"/></g><g id="HAND_1_"><path fill="#fff" stroke="#66b0f0" stroke-width="4" stroke-miterlimit="10" d="M2375.1 1026.2h-163.4l-43.6-129.4 163.4-46.8z"/><path class="st6" d="M2220.2 913.6h-3.1c-7.9 0-14.3-6.4-14.3-14.3v-44.9c0-3.2 2.6-5.8 5.8-5.8h13.5c3.2 0 5.8 2.6 5.8 5.8v51.4c.1 4.3-3.4 7.8-7.7 7.8z"/><path class="st8" d="M2220.2 913.6h-3.1c-7.9 0-14.3-6.4-14.3-14.3v-44.9c0-3.2 2.6-5.8 5.8-5.8h13.5c3.2 0 5.8 2.6 5.8 5.8v51.4c.1 4.3-3.4 7.8-7.7 7.8z"/><path class="st6" d="M2286 913.6h3.1c7.9 0 14.3-6.4 14.3-14.3v-44.9c0-3.2-2.6-5.8-5.8-5.8H2284c-3.2 0-5.8 2.6-5.8 5.8v51.4c0 4.3 3.5 7.8 7.8 7.8zm-40.7 5.2h-7.2c-5.6 0-10.1-4.5-10.1-10.1v-54.2c0-3.2 2.6-5.8 5.8-5.8h13.5c3.2 0 5.8 2.6 5.8 5.8V911c0 4.3-3.5 7.8-7.8 7.8z"/><path class="st6" d="M2270.5 920.8h-6c-6.3 0-11.4-5.1-11.4-11.4v-55c0-3.2 2.6-5.8 5.8-5.8h13.5c3.2 0 5.8 2.6 5.8 5.8V913c0 4.3-3.5 7.8-7.7 7.8z"/><path class="st8" d="M2286 913.6h3.1c7.9 0 14.3-6.4 14.3-14.3v-44.9c0-3.2-2.6-5.8-5.8-5.8H2284c-3.2 0-5.8 2.6-5.8 5.8v51.4c0 4.3 3.5 7.8 7.8 7.8zm-40.7 5.2h-7.2c-5.6 0-10.1-4.5-10.1-10.1v-54.2c0-3.2 2.6-5.8 5.8-5.8h13.5c3.2 0 5.8 2.6 5.8 5.8V911c0 4.3-3.5 7.8-7.8 7.8z"/><path class="st8" d="M2270.5 920.8h-6c-6.3 0-11.4-5.1-11.4-11.4v-55c0-3.2 2.6-5.8 5.8-5.8h13.5c3.2 0 5.8 2.6 5.8 5.8V913c0 4.3-3.5 7.8-7.7 7.8z"/></g><g id="HEAD_5_"><g id="NECK_2_"><path class="st6" d="M2471.7 796.1v73c0 12.6-21.5 22.9-48 22.9s-48-10.3-48-22.9v-73h96z"/><path class="st2" d="M2471.7 796.1c0 55.1-35.3 71.5-69.2 68.6h-.3c-15-1.4-26.4-14.2-26.4-29.2v-39.3h95.9z"/></g><path id="HEAD_4_" class="st6" d="M2494 777.3v3.7c0 8.2-6.6 14.8-14.8 14.8h-7.6l.1 1.7c0 23.6-19.1 42.7-42.7 42.7h-10.5c-23.6 0-42.7-19.1-42.7-42.7l.1-1.7h-7.6c-8.2 0-14.8-6.6-14.8-14.8v-3.7c0-8.2 6.6-14.8 14.8-14.8h9.7l1.1-18.1c0-2.8.4-5.5 1.2-8 28.6 7.1 62.1-11.3 71.1-16.8 10 3.8 17.1 13.4 17.1 24.7l1.1 18.1h9.7c8.1.1 14.7 6.7 14.7 14.9z"/><path id="HAIR_2_" class="st9" d="M2479.9 762.5h-10.4l-1.1-18.1c0-11.3-7.1-20.9-17.1-24.7-9 5.4-42.5 23.8-71.1 16.8-.8 2.5-1.2 5.2-1.2 8l-1.1 18.1h-6.5s-13.3-64.4-.2-76.2c9.7-8.7 98.5 10.3 108.3 23.8 5.5 7.7.4 52.3.4 52.3z"/><g id="FACE"><path class="st2" d="M2454.9 758.6c-.3 0-.7-.1-1-.4-.1-.1-6.6-5.4-17-5.4-.8 0-1.5-.7-1.5-1.5s.7-1.5 1.5-1.5c11.5 0 18.6 5.8 18.9 6.1.6.5.7 1.5.2 2.1-.2.4-.7.6-1.1.6zm-38 31c-.2 0-.4 0-.5-.1-.8-.3-1.2-1.2-.9-1.9 2.8-7.4 2.1-16.7-1.8-24.9-2.3-5-5.6-8.6-8.5-9.6-6.4-2.2-15.4.9-15.5.9-.8.3-1.6-.1-1.9-.9-.3-.8.1-1.6.9-1.9.4-.1 10-3.4 17.4-.9 3.7 1.3 7.5 5.4 10.2 11.2 4.2 8.9 4.9 19.1 1.9 27.3-.1.4-.7.8-1.3.8zm19.7 15.9c.1.8-.6 1.5-1.4 1.6h-.1c-.8 0-1.4-.6-1.5-1.4-.1-1-.3-2-.6-2.9-4.3 2.1-8.2 2.8-11.4 2.8-6.3 0-10.1-2.6-10.3-2.8-.7-.5-.8-1.4-.4-2.1.5-.7 1.4-.8 2.1-.4.2.1 3.4 2.3 8.6 2.3 2.8 0 6.2-.6 10.1-2.5-.6-1-1.2-1.6-1.2-1.6-.6-.6-.5-1.6.1-2.1s1.6-.5 2.1.1c.2.3 3.6 4.1 3.9 9z"/><ellipse transform="matrix(.9981 -.06221 .06221 .9981 -43.294 153.395)" class="st2" cx="2441.6" cy="771.9" rx="2.5" ry="5"/><ellipse transform="matrix(.9981 -.06221 .06221 .9981 -43.373 150.856)" class="st2" cx="2400.8" cy="771.9" rx="2.3" ry="4.6"/><path class="st2" d="M2373.2 782.1c-.8 0-1.5-.7-1.5-1.5 0-4.4-3.6-7.9-7.9-7.9-.8 0-1.5-.7-1.5-1.5s.7-1.5 1.5-1.5c6 0 10.9 4.9 10.9 10.9 0 .9-.7 1.5-1.5 1.5zm100.6 0c-.8 0-1.5-.7-1.5-1.5 0-6 4.9-10.9 10.9-10.9.8 0 1.5.7 1.5 1.5s-.7 1.5-1.5 1.5c-4.4 0-7.9 3.6-7.9 7.9 0 .9-.6 1.5-1.5 1.5z"/></g></g></g><path class="st4" d="M4284 2996l-428.3-1416.2c-8.5-28.2-34.6-47.5-64.1-47.5H1192.1c-29.8 0-56 19.7-64.3 48.4L719.1 2996m1185.1-1942.3h1137" id="TABLE"/><g id="BOY"><path id="PAPER_1_" class="st5" d="M2298.8 1268.9h268.6v230.7h-268.6v-230.7z"/><g id="BOY_1_"><g id="LEGS_1_"><path class="st10" d="M3303.2 2340.8l-124.9-311h201.1zm-342.7-726.1c26.8-50.7 79.5-82.4 136.8-82.4H3252l105.1 82.4h-396.6z"/><path class="st11" d="M3547 1978.8h-389.7l146.7 356.1c-10.2-16.6-71.3.7-136 40.4-63.9 39.2-107.1 86.4-98.3 103.6l-316.2-550.2c-82-138.8 18-314 179.2-314H3806l1.9 6c57 177-75 358.1-260.9 358.1z"/><path d="M3821.1 1716.8c-1.4 32.5-8.6 63.9-20.8 93l-458-195h454.6l10.6 31c7.4 18.6 11.5 44.7 13.6 71z" fill="#e6e6e6"/><path class="st2" d="M3304.1 2334.9c10.2 16.6-34.4 61.9-99 101.6-64.7 39.7-124.8 59.6-135 43-10.2-16.6 33.3-63.5 98-103.2 64.6-39.7 125.7-58 136-41.4z"/><path class="st13" d="M3160.6 2376.5l-284.4-502.8c-22.3-39.8 6.4-89 52.1-89h553.9c74.6 0 130.3-68.7 114.9-141.7"/><path class="st13" d="M3066.8 2480.6c-10.2-16.6 33.9-69.4 101.3-108.7 75.7-44.1 124.7-57.2 139.3-33.8m2.2 2.2l-185.8-443"/><path fill="none" stroke="#fff" stroke-width="6" stroke-miterlimit="10" d="M2921.8 1611.4h453.3"/><path class="st9" d="M3178.2 2502.4l-27-36.8-37.2-50.6c15.2-12.8 33.5-26.1 54-38.7 40.8-25 80.1-41.6 106.2-46.2l18.1 36.1 22.6 45c-16 56.9-136.7 91.2-136.7 91.2z"/><path class="st10" d="M3292.4 2366.2c-16.8 20.5-48.4 46.4-87.3 70.3-18.7 11.5-37 21.3-53.8 29.1l-37.2-50.6c15.2-12.8 33.5-26.1 54-38.7 40.8-25 80.1-41.6 106.2-46.2l18.1 36.1z"/><path class="st15" d="M3438.5 2609.5l-274.4 197.1c-23.3 16.2-59.5 29.7-54.7-28.9 6.7-80.8 24.6-201 68.8-275.4 1.9-.5 120.7-34.8 136.7-91.2L3440 2500c36 28 35.2 82.6-1.5 109.5z"/><path class="st16" d="M3165.5 2528.4c21.8 4.1 144.2-39.3 163.2-106.2"/><path class="st5" d="M3136 2786.3s179.1-248.8 306.5-234.8c138.7 15.1-419.9 379.9-306.5 234.8z"/><path class="st16" d="M3130.9 2820.2c-13.9.9-28.6-15.3-8.3-41.3 0 0 186.4-258 319.1-243.4 20.5 2.2 27.4 18.9 22.6 33.3"/></g><g id="T-SHIRT"><path d="M3822.1 1737.1c-63.4-15-221.2-54.5-401.2-96.1-84.6-19.5-155.4-77.1-191.9-155.9l-163.9-354.6 99.2-157.2c30.5-48.4 82.5-79.2 139.6-82.7l97.6-6c98.4-6 177.4 55.4 207.4 149.3l198.5 580.8c21.8 54.4 14.7 122.4 14.7 122.4z" fill="#fff" stroke="#fe5244" stroke-width="6" stroke-miterlimit="10"/><path class="st18" d="M3151.4 1150.4s52.2 82 171.1 100.1"/><path d="M3221.8 1001.2c-5.4-5.8-14.9-4.2-18.2 2.9-3.7 8 3 16.9 11.7 15.6 8.9-1.3 12.6-12 6.5-18.5zm249.1 170.9c-5.4-5.8-14.9-4.2-18.2 2.9-3.7 8 3 16.9 11.7 15.6 8.9-1.3 12.6-12 6.5-18.5zm78.9 70c-5.4-5.8-14.9-4.2-18.2 2.9-3.7 8 3 16.9 11.7 15.6 8.8-1.2 12.5-11.9 6.5-18.5zm151.3 396.1c-5.4-5.8-14.9-4.2-18.2 2.9-3.7 8 3 16.9 11.7 15.6 8.8-1.3 12.5-11.9 6.5-18.5zm-84.7-189.3c-5.4-5.8-14.9-4.2-18.2 2.9-3.7 8 3 16.9 11.7 15.6 8.9-1.3 12.6-12 6.5-18.5zm35.1-136.2c-7.8 1-12.1 9.7-8.2 16.5 4.4 7.7 15.5 7.4 19.5-.5 4.1-8-2.5-17.2-11.3-16zm63.9 202c-7.8 1-12.1 9.7-8.2 16.5 4.4 7.7 15.5 7.4 19.5-.5 4.1-8-2.4-17.2-11.3-16zm-265-217.9c-5.4-5.8-14.9-4.2-18.2 2.9-3.7 8 3 16.9 11.7 15.6 8.8-1.3 12.5-11.9 6.5-18.5zm-55.1 113.3c-5.4-5.8-14.9-4.2-18.2 2.9-3.7 8 3 16.9 11.7 15.6 8.9-1.3 12.6-12 6.5-18.5zm-98.6-39.6c5.8-5.4 4.2-14.9-2.9-18.2-8-3.7-16.9 3-15.6 11.7 1.3 8.8 11.9 12.5 18.5 6.5zm87.5 195c5.8-5.4 4.2-14.9-2.9-18.2-8-3.7-16.9 3-15.6 11.7 1.3 8.9 12 12.6 18.5 6.5zm147.3-167.3c5.8-5.4 4.2-14.9-2.9-18.2-8-3.7-16.9 3-15.6 11.7 1.3 8.8 12 12.6 18.5 6.5zm50.3 209.4c5.8-5.4 4.2-14.9-2.9-18.2-8-3.7-16.9 3-15.6 11.7 1.2 8.9 11.9 12.6 18.5 6.5zm-301.6-424.1c-5.4-5.8-14.9-4.2-18.2 2.9-3.7 8 3 16.9 11.7 15.6 8.9-1.3 12.6-12 6.5-18.5zm17.9-259.4c-5.4-5.8-14.9-4.2-18.2 2.9-3.7 8 3 16.9 11.7 15.6 8.9-1.3 12.6-12 6.5-18.5zm172.8 0c-5.4-5.8-14.9-4.2-18.2 2.9-3.7 8 3 16.9 11.7 15.6 8.9-1.3 12.6-12 6.5-18.5zm.3 112c-7.3 2.9-9.4 12.3-3.9 18 6.1 6.3 16.8 3.4 18.8-5.2 2-8.7-6.6-16.1-14.9-12.8zm-98.2-63.8c-7.6 2.2-10.5 11.3-5.7 17.5 5.5 6.9 16.4 5 19.2-3.3 2.9-8.5-5-16.7-13.5-14.2zm-14.5 277c-7.8.9-12.2 9.5-8.4 16.4 4.3 7.7 15.4 7.6 19.5-.2 4.2-7.9-2.2-17.2-11.1-16.2zm-85.7 208.3c-7.8.9-12.2 9.5-8.4 16.4 4.3 7.7 15.4 7.6 19.5-.2 4.2-7.9-2.2-17.2-11.1-16.2zm28.8-402.7c-7.6 2.2-10.5 11.3-5.7 17.5 5.5 6.9 16.4 5 19.2-3.3 2.9-8.4-4.9-16.6-13.5-14.2zm82.8 56c-7.6 2.2-10.5 11.3-5.7 17.5 5.5 6.9 16.4 5 19.2-3.3 2.9-8.5-4.9-16.7-13.5-14.2zm-179.3-2.4c5-6.1 2.3-15.3-5.3-17.6-8.4-2.6-16.4 5.2-13.9 13.6 2.5 8.6 13.5 10.9 19.2 4zm379.1.3c5-6.1 2.3-15.3-5.3-17.6-8.4-2.6-16.4 5.2-13.9 13.6 2.4 8.6 13.5 10.9 19.2 4zm-96.2 405.4c5-6.1 2.3-15.3-5.3-17.6-8.4-2.6-16.4 5.2-13.9 13.6 2.4 8.5 13.5 10.8 19.2 4z" fill="#ffcf2d" stroke="#fe5244" stroke-width="6" stroke-linejoin="round" stroke-miterlimit="10"/></g><g id="HEAD_2_"><g id="NECK_1_"><path class="st9" d="M3408.2 881.3c-2.2.1-4.4.2-6.7.3l-97.6 6c-24.9 1.5-48.7 8.2-70.3 19.3l-30-89.8 133.7-98 70.9 162.2z"/><path class="st10" d="M3233.2 905.5c27.8-12.6 50-35 62.6-62.8l48.6-107.5-7.1-16.2-133.7 98 29.6 88.5z"/></g><g id="HEAD_3_"><path class="st9" d="M3345.9 728.1c0 9.3-3.8 17.7-9.9 23.8-6.1 6.1-14.5 9.9-23.8 9.9h-29.4c-11.6 45.1-56.5 76-104.8 67.5l-22.1-3.9c-24.2-4.3-40.7-26.9-37.3-51.2l25.9-129.7c4.5-27.7 33-44.6 59.5-35.1l42.9 17.2c23.2 8 38.8 29.8 38.8 54.3v12.5l26.5 1c18.6 0 33.7 15.1 33.7 33.7z"/><path class="st20" d="M3296.1 734.6c0-12.9 10.4-23.3 23.3-23.3m-160.5-39.5s21 0 36 20.1"/><ellipse transform="rotate(-79.7 3167.929 708.404)" class="st10" cx="3168" cy="708.4" rx="10.7" ry="5"/></g><g id="HAIR_1_"><path class="st5" d="M3312.2 694.4c18.6 0 33.7 15.1 33.7 33.7v.5c15-23.1 51.8-81.9 51.8-101.8 0-26.7-33.3-53.4-67.8-41.2 2.3-1.7 4.7-3.5 7.2-5.4 13.3-10.4 20.3-18.2 21.4-23.8.4-2 .1-3.8-.9-5.2-4-5.7-8.4-8.2-13.1-7.4-6.9 1.1-14 9.6-21.1 25.2-3.2 7.1-5.7 14.1-7.1 18.4-2.8-16.7-16.3-72-74.3-63.5-20 2.9-29.4 11.2-32 20.3-16.6-13-38.8-23.2-57.2-13.5-31.8 16.7-27.9 44.1-9.5 63.5-17.4-.3-29.6 4.8-29.6 19.5 0 13.5 13.9 20 33 22.6 19.1 2.6 43.6 1.2 64.8-1.2 15.1-1.7 28.7-3.8 37.4-5.3-5.8 11.9-8.1 22.1-7.6 30.7.9 17.8 13.8 28.3 32 32 3.9.8 8.1 1.3 12.4 1.5l26.5.4zm32.9-146.6c.3-.1.6-.1 1-.1 2.8 0 5.5 2 8.2 5.8.2.4.5 1 .3 2.1-1.6 8.1-22.1 23.5-34 31.6 4.7-13.8 14.6-37.7 24.5-39.4z"/><path class="st6" d="M3232.4 577.4c-6.9 0-13.9-3.7-19-10.2-5.7-7.2-7.6-16.1-5.2-23.8a2 2 0 012.3-1.4c.4 0 .8.1 1.1.4 15.1 10.8 27.2 26.2 25.4 32.3-.4 1.6-1.7 2.6-3.4 2.7h-1.2zm-21-30.2c-.9 5.8.9 12.2 5.1 17.5 4.5 5.7 10.7 9 16.7 8.6.2-2.6-6.5-14.5-21.8-26.1z"/></g></g><g id="HANDS"><g id="LEFT_1_"><path class="st9" d="M3035 1460.4h-640c-15.8 0-25.3-17.4-16.9-30.7l85.2-133.8c11.1-17.4 30.2-27.9 50.8-27.9h433.2l87.7 192.4z"/><path class="st21" d="M2528.2 1268.1l51-84c3-5 8.5-8.1 14.3-8.1 13.1 0 21.1 14.3 14.3 25.5l-40.5 66.6h-39.1z"/><path class="st10" d="M3035 1460.4h-143.9l-1-1c-35-36-49.9-90.6-30.2-143.2l20.5-48.2h66.9l87.7 192.4z"/><path class="st9" d="M2485.4 1370.6h-80.2c-5.4 0-10.4 2.9-13.1 7.6l-8.5 14.8c-5.7 10 1.5 22.5 13.1 22.5h64.5c11.2 0 21.6-5.8 27.5-15.4l6.9-11.3c4.8-8-.9-18.2-10.2-18.2zm-20.7 44.9h-80.2c-5.4 0-10.4 2.9-13.1 7.6l-8.5 14.8c-5.7 10 1.5 22.5 13.1 22.5h64.5c11.2 0 21.6-5.8 27.5-15.4l6.9-11.3c4.9-8-.9-18.2-10.2-18.2zm43.6-90.4h-80.2c-5.4 0-10.4 2.9-13.1 7.6l-8.5 14.8c-5.7 10 1.5 22.5 13.1 22.5h64.5c11.2 0 21.6-5.8 27.5-15.4l6.9-11.3c4.9-8-.9-18.2-10.2-18.2z"/><path class="st20" d="M2485.4 1370.6h-80.2c-5.4 0-10.4 2.9-13.1 7.6l-8.5 14.8c-5.7 10 1.5 22.5 13.1 22.5h64.5c11.2 0 21.6-5.8 27.5-15.4l6.9-11.3c4.8-8-.9-18.2-10.2-18.2zm-20.7 44.9h-80.2c-5.4 0-10.4 2.9-13.1 7.6l-8.5 14.8c-5.7 10 1.5 22.5 13.1 22.5h64.5c11.2 0 21.6-5.8 27.5-15.4l6.9-11.3c4.9-8-.9-18.2-10.2-18.2zm43.6-90.4h-80.2c-5.4 0-10.4 2.9-13.1 7.6l-8.5 14.8c-5.7 10 1.5 22.5 13.1 22.5h64.5c11.2 0 21.6-5.8 27.5-15.4l6.9-11.3c4.9-8-.9-18.2-10.2-18.2z"/><path class="st9" d="M2624.4 1392c-24.1 0-47.3-8.7-65.5-24.6l-30.4-26.6h-28l-7.2 7.7c-12.9 13.8-28.8 21.7-47.7 21.7h-13.4c-7 0-11.3-7.8-7.5-13.7l33.7-52.8h166.1v88.3z"/><path class="st20" d="M2458.4 1303.7l-33.7 52.8c-3.8 5.9.5 13.7 7.5 13.7h13.4c18.9 0 34.8-7.8 47.7-21.7l7.2-7.7h28l30.4 26.6c18.1 15.8 41.4 24.6 65.5 24.6"/></g><g id="RIGHT_1_"><path class="st9" d="M3299.6 1273.4L3146.9 1444c-32.1 35.9-78 56.4-126.2 56.4-95.2 0-161.1-95-127.7-184.2L3074.4 890l-61.3-34.3c-8.7-6.8-12.9-17.9-11-28.7l10.4-70.1c3.2-15.6 19.1-27.8 34.6-31.4l71.8-16.2c6.1-1.4 11.7 3.8 10.7 9.9l-10.4 54.1c-4.1 26.4 13.7 49.2 40.1 53.7 21.6 3.7 36.8 25.4 34.8 47.2l-48.9 305c-.1.2 50 78.3 154.4 94.2z"/><path class="st20" d="M3182.5 946.7l-59 383.1M3060.2 762l-.8 24.8c-.3 10.2 5.8 19.2 14.6 21.7l91.9 18.6"/><path class="st20" d="M3228.4 835.1l-73.5-9.8c-24.2-4.3-40.7-26.9-37.3-51.2l9.5-54.3c.9-5.1-3.7-9.4-8.7-8.2l-75 17.5"/><path class="st18" d="M3187.8 1398l198.8-221.2"/><path class="st20" d="M3076.5 890.1h35.1m-51.3-121.5v8c0 9.5 6.9 17.3 15.4 17.3h11c4.8 0 8.6-4.3 8.6-9.7l.7-52.2c.1-8.1-8.5-13.1-15.5-11.4m15.5 48v8c0 9.5 6.9 17.3 15.4 17.3h7"/></g></g></g><g id="CHAIR_1_"><path class="st4" d="M3760.1 2029.8l116.1 966.2m-619.3-966.2L3140.8 2996m39.8-331.8h655.7"/><path class="st15" d="M3190 2032.8h631c8.4 0 15.2-6.8 15.2-15.2V1997c0-8.4-6.8-15.2-15.2-15.2h-631c-8.4 0-15.2 6.8-15.2 15.2v20.6c0 8.4 6.8 15.2 15.2 15.2z"/></g></g><g id="GIRL"><g id="PAPER"><path class="st22" d="M2140 1301.6l-96.6 198.8h-291.9l117.3-198.8z"/><path d="M2076 1350.1s-12.7-21.7-43.2-16.1c-22.8 4.1-49.8 22.9-66.4 12.8-16.6-10.1-31.3-22.7-52.8-16.7-21.5 6-37.4 17.5-37.4 17.5m189.8 33.5s-12.7-21.7-43.2-16.1c-22.8 4.1-49.8 22.9-66.4 12.8-16.6-10.1-31.3-22.7-52.8-16.7-21.5 6-37.4 17.5-37.4 17.5" fill="none" stroke="#3fb1b5" stroke-width="5" stroke-miterlimit="10"/></g><g id="GIRL_1_"><g id="LEGS"><g id="LEFT"><path class="st21" d="M2249.8 2193.8c0 26.7-74.1 48.3-166.9 48.3-92.8 0-164.7-21.6-164.7-48.3s71.9-48.3 164.7-48.3c92.8 0 166.9 21.7 166.9 48.3z"/><path class="st24" d="M2207.1 2161.3v345l-10.5-49.8c-11.3-53.6-58.6-91.9-113.4-91.9-16.5 0-32.7 3.5-47.4 10.1-.5.2-1 .5-1.6.7l-38.5-140.4-21.4-78.1c29.3-7.1 67.2-11.4 108.6-11.4 49.2 0 93.5 6.1 124.2 15.8z"/><path class="st25" d="M2207.1 2161.3v65c-30.7 9.7-75 15.8-124.2 15.8-31.9 0-61.7-2.6-87.2-7l-21.4-78.1c29.3-7.1 67.2-11.4 108.6-11.4 49.2-.1 93.5 6 124.2 15.7z"/><path class="st5" d="M2199.7 2496.2c2.7.8 28.1 7.9 50.6 7.9 12.2 0 23.5-2.1 29.9-8.5 5.5-5.5 6.8-13.5 3.9-23.6-2.6-9-7.6-14.6-14.9-16.6-13.4-3.6-32 6.4-46.7 16.9 22.9-27.8 45.5-63.1 37.1-86.2-3-8.2-9.8-13.7-18.3-14.7-7.1-.8-13.7 1.7-16.8 6.4-14.4 21.9-26.2 111.8-26.7 115.6l1.9 2.8zm29-115.6c1.8-2.7 5.6-4.3 10-4.3.7 0 1.4 0 2.1.1 3.2.4 10.9 2.2 14.2 11.4 2.2 6.1 3 17.3-5.9 36.1-8.4 17.8-23.6 38.7-45.2 62.4 3.2-22.8 13.4-88.4 24.8-105.7zm48 111.5c-6.6 6.6-21.6 8.6-43.5 5.8-11.5-1.5-22.2-3.9-27.9-5.4 4.3-3.8 12.3-10.7 21.6-17.1 17.8-12.3 32-17.6 41.1-15.1 5.5 1.5 9.2 5.8 11.4 13.1 2.4 8.4 1.5 14.5-2.7 18.7z"/><path class="st22" d="M1996.7 2403.4l-23.1 25.9c-26.2 29.4-30.5 72.2-10.6 106.2l101.7 174.4c19.9 34.1 56.4 55 95.8 55h42.1c30.5 0 53.2-28 46.9-57.8l-53-250.5c-11.3-53.6-58.6-91.9-113.4-91.9-32.9-.1-64.4 14-86.4 38.7z"/><path class="st11" d="M2075.4 2478.8l131.3 254.4c6.2 11.5 13.9 18.9 22.7 23.6-7.6 5.1-16.8 8.2-26.8 8.2h-42.1c-39.5 0-76-21-95.8-55L1963 2535.5c-4.1-7.1-7.2-14.5-9.3-22.2-14.4-53.5 46.5-95.5 92.2-64.1 10.4 7.1 20.6 16.7 29.5 29.6z"/><path class="st6" d="M2075.7 2479.4h-121.2c.6-1.9 1.3-3.7 2.1-5.4h115.2c1.2 1.6 2.4 3.2 3.6 4.9l.3.5zm17.8 34.4h-139.6c0-.2-.1-.4-.1-.5-.4-1.6-.8-3.3-1.1-4.9h138.1l2.7 5.4zm17.8 34.5h-140.8l-3.2-5.5h141.2zm17.8 34.5h-138.5l-3.2-5.5h138.9zm17.8 34.4h-136.2l-3.2-5.4h136.6zm17.8 34.5h-133.9l-3.2-5.5h134.2zm17.8 34.5h-131.6l-3.2-5.5h131.9zm17.7 34.4h-128.4c-1.3-1.8-2.6-3.6-3.8-5.4h129.4l2.8 5.4zm26.3 34.5h-111.6a104 104 0 01-10.5-5.4h114.9c2.3 2 4.7 3.8 7.2 5.4z"/></g><g id="RIGHT"><path class="st25" d="M1840.2 2186.7c-.9 26.4-75.8 47.8-168 47.8s-167.1-21.3-168-47.8v-207.9h336v207.9z"/><path class="st24" d="M1817.9 2221.2l-.5 24.7-4.8 241.1v-7c0-61.9-50.2-112.1-112.1-112.1h-6.8c-31.6 0-60.1 12.3-81.2 32.1l-14.7-99.4-9.1-61.5c24.6 4.1 53.1 6.4 83.4 6.4 62.4-.1 116.7-9.9 145.8-24.3z"/><path class="st25" d="M1817.9 2221.2l-.5 24.7c-37.2 26.4-152.1 58.9-219.5 54.6l-9.1-61.5c24.6 4 53.1 6.4 83.4 6.4 62.3 0 116.6-9.8 145.7-24.2z"/><path class="st22" d="M1705.6 2768.2h18.6c48.8 0 88.4-39.6 88.4-88.4V2480c0-61.9-50.2-112.1-112.1-112.1h-6.8c-72 0-127.5 63.5-117.8 134.9l23.5 172.8c7.3 53 52.6 92.6 106.2 92.6z"/><path class="st11" d="M1784.8 2744.1c-15.8 14.9-37.2 24.1-60.6 24.1h-18.6c-53.6 0-98.9-39.6-106.1-92.6l-23.5-172.8c-.4-3.3-.8-6.6-.9-9.8 6-38.3 39.1-67.6 79.1-67.6 19.7 0 37.9 7.2 52 19.2 14.1 12 24 28.9 27.1 48.4l30.9 210.9c2.3 15.7 9.7 29.7 20.6 40.2z"/><path class="st6" d="M1724 2466.3h-139.7c1-1.9 2.2-3.7 3.4-5.4h133c1.2 1.7 2.3 3.5 3.3 5.4zm10.4 34.4h-158.7c-.2-1.8-.4-3.6-.5-5.4h158.4l.8 5.4zm5.1 34.5h-159.1l-.8-5.4h159.1zm5 34.5h-159.4l-.8-5.5h159.4zm5.1 34.4h-159.8l-.8-5.4h159.8zm5 34.5h-160.2l-.7-5.4h160.1zm5.1 34.5h-160.6l-.7-5.5h160.5zm5.1 34.4H1609c-.9-1.8-1.7-3.6-2.4-5.4h157.3l.3 1.8.6 3.6zm17.9 34.5h-147.3c-2-1.7-4-3.6-5.8-5.4h148.5c1.4 1.9 3 3.7 4.6 5.4z"/></g></g><g id="CLOTHES"><path class="st5" d="M1912.9 1106.1v168.4c-7.3-19.1-65.1-16.4-128.7 7.7-54.5 20.7-95.4 49.1-101.4 68.8v-237c0-70.5 37.7-133.5 95.6-167.9 75.2 13.1 134.5 78.6 134.5 160zm-234.5-152.4c-51.2 35.6-83.8 94.7-83.8 160.3v195.5h-284.7l39.3-169.2c16.7-72.1 68.9-129.6 136.9-154.1l192.3-32.5z"/><path class="st21" d="M2254.2 1790.5V2183c0-26.7-78.5-48.3-171.3-48.3-92.8 0-168 21.6-168 48.3v-188.1c0-8.8-7.2-16-16-16h-510.4c-153.5 0-267-142.9-232.3-292.4l123.2-530.8c19.6-84.7 88.2-149.2 173.9-163.8l32.8-5.6c-68 24.5-120.2 82-136.9 154.1l-39.3 169.2h284.7V1114c0-65.6 32.7-124.8 83.8-160.3l45-7.6c9.3-1.6 18.4-2.3 27.5-2.3h3.5c1.1 0 2.2.1 3.2.1h.6c.8 0 1.7.1 2.5.1h.4c.5 0 1 .1 1.4.1.9.1 1.7.1 2.6.2 1 .1 2.1.2 3.1.3 1 .1 1.9.2 2.9.3.2 0 .4.1.7.1 1 .1 2.1.3 3.1.4h.2c1.1.2 2.2.3 3.3.5-57.9 34.4-95.6 97.4-95.6 167.9v480.5h375.4c108.2.2 196 87.9 196 196.2z"/><path class="st13" d="M1684.9 949.3c-51.2 35.6-90.4 99.1-90.4 164.7v195.5h-284.7l39.3-169.2c16.7-72.1 64.5-130.7 132.6-155.2m433.2 949.5c0-55.7 19.7-109.6 55.6-152.1"/><path class="st6" d="M1499 1914.7c-.5 0-1-.1-1.4-.4l-13.2-7.2c-1.5-.8-2-2.6-1.2-4.1s2.6-2 4.1-1.2l13.2 7.2c1.5.8 2 2.6 1.2 4.1-.6 1-1.6 1.6-2.7 1.6zm13.2-3.4c-1.1 0-2.1-.6-2.6-1.6-.8-1.5-.3-3.3 1.2-4.1l13.2-7.2c1.5-.8 3.3-.2 4.1 1.2.8 1.5.3 3.3-1.2 4.1l-13.2 7.2c-.5.2-1 .4-1.5.4zm-39.6-10.9c-.5 0-1-.1-1.4-.4l-13.2-7.2c-1.5-.8-2-2.6-1.2-4.1.8-1.5 2.6-2 4.1-1.2l13.2 7.2c1.5.8 2 2.6 1.2 4.1-.6 1-1.6 1.6-2.7 1.6zm65.9-3.5c-1.1 0-2.1-.6-2.6-1.6-.8-1.5-.3-3.3 1.2-4.1l13.2-7.2c2.3-1.2 4.4-2.6 6.5-4.1 1.3-1 3.2-.7 4.2.6 1 1.3.7 3.2-.6 4.2-2.3 1.7-4.7 3.2-7.2 4.6l-13.2 7.2c-.5.3-1 .4-1.5.4zm-92-11.3c-.6 0-1.2-.2-1.8-.6-4.2-3.1-8.1-6.7-11.4-10.8-1.1-1.3-.9-3.2.4-4.2 1.3-1.1 3.2-.9 4.2.4 3 3.7 6.5 6.9 10.3 9.7 1.3 1 1.6 2.9.7 4.2-.5.9-1.4 1.3-2.4 1.3zm122.9-10.5c-.7 0-1.3-.2-1.9-.7-1.3-1-1.5-2.9-.4-4.2 3-3.7 5.5-7.7 7.5-12.1.7-1.5 2.5-2.2 4-1.5 1.5.7 2.2 2.5 1.5 4-2.2 4.8-5 9.3-8.3 13.3-.7.8-1.5 1.2-2.4 1.2zm-141.7-12.4c-1.1 0-2.2-.6-2.7-1.7-2.2-4.8-3.8-9.8-4.8-15-.3-1.6.8-3.2 2.4-3.5 1.6-.3 3.2.8 3.5 2.4.9 4.7 2.3 9.2 4.3 13.5.7 1.5 0 3.3-1.5 4-.4.2-.8.3-1.2.3zm154.1-14.6h-.5c-1.6-.3-2.7-1.9-2.4-3.5.6-3.3.9-6.6.9-9.9v-4.5c0-1.7 1.3-3 3-3s3 1.3 3 3v4.5c0 3.7-.3 7.4-1 11-.3 1.4-1.6 2.4-3 2.4zm-159.6-14.6c-1.7 0-3-1.3-3-3v-15c0-1.7 1.3-3 3-3s3 1.3 3 3v15c0 1.6-1.4 3-3 3zm160.5-15.3c-1.7 0-3-1.3-3-3v-15c0-1.7 1.3-3 3-3s3 1.3 3 3v15c0 1.7-1.3 3-3 3zm-160.5-14.7c-1.7 0-3-1.3-3-3v-15c0-1.7 1.3-3 3-3s3 1.3 3 3v15c0 1.6-1.4 3-3 3zm160.5-15.3c-1.7 0-3-1.3-3-3v-15c0-1.7 1.3-3 3-3s3 1.3 3 3v15c0 1.7-1.3 3-3 3zm-160.5-14.7c-1.7 0-3-1.3-3-3v-15c0-1.7 1.3-3 3-3s3 1.3 3 3v15c0 1.6-1.4 3-3 3zm160.5-15.3c-1.7 0-3-1.3-3-3v-15c0-1.7 1.3-3 3-3s3 1.3 3 3v15c0 1.7-1.3 3-3 3zm-160.5-14.7c-1.7 0-3-1.3-3-3v-12.9h8.1c1.7 0 3 1.3 3 3s-1.3 3-3 3h-2.1v6.9c0 1.6-1.4 3-3 3zm155.1-9.9h-15c-1.7 0-3-1.3-3-3s1.3-3 3-3h15c1.7 0 3 1.3 3 3s-1.3 3-3 3zm-30 0h-15c-1.7 0-3-1.3-3-3s1.3-3 3-3h15c1.7 0 3 1.3 3 3s-1.3 3-3 3zm-30 0h-15c-1.7 0-3-1.3-3-3s1.3-3 3-3h15c1.7 0 3 1.3 3 3s-1.3 3-3 3zm-30 0h-15c-1.7 0-3-1.3-3-3s1.3-3 3-3h15c1.7 0 3 1.3 3 3s-1.3 3-3 3zm-30 0h-15c-1.7 0-3-1.3-3-3s1.3-3 3-3h15c1.7 0 3 1.3 3 3s-1.3 3-3 3zM1216 1898.1c-1.1 0-2.1-.6-2.6-1.6-.8-1.5-.3-3.3 1.2-4.1l12.2-6.7c.3-.2.6-.3.9-.5 1.4-.8 3.3-.3 4.1 1.1.8 1.4.3 3.3-1.1 4.1-.3.2-.6.4-1 .5l-12.2 6.7c-.5.4-1 .5-1.5.5zm25.3-16c-.8 0-1.6-.3-2.2-1-1.1-1.2-1-3.1.2-4.2 3.5-3.2 6.6-6.9 9.3-10.8.9-1.4 2.8-1.7 4.2-.8 1.4.9 1.7 2.8.8 4.2-2.9 4.3-6.4 8.3-10.2 11.9-.7.5-1.4.7-2.1.7zm16.7-24.6c-.4 0-.7-.1-1.1-.2-1.5-.6-2.3-2.3-1.7-3.9 1.7-4.5 2.9-9.1 3.6-13.8.2-1.6 1.7-2.8 3.4-2.6 1.6.2 2.8 1.7 2.6 3.4-.7 5.2-2 10.3-3.9 15.2-.6 1.2-1.7 1.9-2.9 1.9zm4.3-29.4c-1.7 0-3-1.3-3-3v-15c0-1.7 1.3-3 3-3s3 1.3 3 3v15c0 1.6-1.3 3-3 3zm0-30c-1.7 0-3-1.3-3-3v-15c0-1.7 1.3-3 3-3s3 1.3 3 3v15c0 1.6-1.3 3-3 3zm0-30c-1.7 0-3-1.3-3-3v-15c0-1.7 1.3-3 3-3s3 1.3 3 3v15c0 1.6-1.3 3-3 3zm0-30c-1.7 0-3-1.3-3-3v-1.5h-7.5c-1.7 0-3-1.3-3-3s1.3-3 3-3h13.5v7.5c0 1.6-1.3 3-3 3zm-25.5-4.5h-15c-1.7 0-3-1.3-3-3s1.3-3 3-3h15c1.7 0 3 1.3 3 3s-1.4 3-3 3zm-30 0h-15c-1.7 0-3-1.3-3-3s1.3-3 3-3h15c1.7 0 3 1.3 3 3s-1.4 3-3 3zm-30 0h-15c-1.7 0-3-1.3-3-3s1.3-3 3-3h15c1.7 0 3 1.3 3 3s-1.4 3-3 3z"/></g><g id="HAND"><path class="st21" d="M1912.9 1274.5c7.3 19.1-38.9 53-102.4 77.1s-120.4 27.8-127.7 8.6 37.8-53.8 101.4-77.9 121.4-27 128.7-7.8z"/><path class="st25" d="M1948.4 1894.9v10.6c-3.3-.8-6.8-1.2-10.3-1.2h-12.9c-19.1 0-35.4-12.2-41.6-29.2l36.6-4.9c14.9-2 28.2 9.6 28.2 24.7z"/><path class="st24" d="M1982.2 1948.4v81.4c0 19-15.4 34.4-34.4 34.4h-38.3c-9.5 0-18.1-3.8-24.3-10.1-6.2-6.2-10.1-14.8-10.1-24.3h24.9c8.2 0 14.8-6.6 14.8-14.8v-21.3c0-8.2-6.6-14.8-14.8-14.8h-127.3c-49.7 0-90-40.3-90-90v-537.8c6-19.7 46.9-48.2 101.4-68.8 37.2-14.1 72.5-20.9 96.8-20.3v598.2c0 24.4 19.8 44.2 44.2 44.2h12.9c24.4-.1 44.2 19.6 44.2 44z"/><path class="st25" d="M1880.9 1261.9v54.4c-18.1 12.2-42.6 24.7-70.5 35.2-63.6 24.1-120.4 27.8-127.7 8.6v-9.1c6-19.7 46.9-48.2 101.4-68.8 37.3-14.1 72.5-20.9 96.8-20.3z"/></g><g id="HEAD_1_"><g id="NECK"><path class="st24" d="M1714.6 856.8l-37.6 96.9-193.8 34.7 50.6-131.6z"/><path class="st25" d="M1714.6 856.8l-20.3 52.4-192.2 30 31.7-82.4z"/></g><g id="HAIR"><path class="st26" d="M1828.2 659.6c0 13.1-22.7 27.6-48.9 39.8-35.7 16.7-77.8 29.4-77.8 29.4l-28.4 53.5c38.6 20.5 53.7 57.3 59.7 83 3.8 16.4 3.8 28.1 3.8 28.1h-272.2s-71.5-231.6 100.8-287c105.4-33.9 263 22.1 263 53.2z"/><circle class="st26" cx="1540" cy="571.7" r="67.7"/></g><g id="HEAD"><path class="st24" d="M1732.7 865.3c-5.6-24.3-19.6-58.9-54.1-79.8h-8.9c-8.2 0-15.7-3.3-21.1-8.7-5.4-5.4-8.7-12.9-8.7-21.1 0-16.5 13.3-29.8 29.8-29.8l37.7.8h1c.7-.2 1.4-.5 2.2-.7 10.2-2.2 42.5-10 69.3-23.4l3.1 18.5 10 59.3c6.8 40.7-21.1 78.2-60.3 84.9z"/><path class="st25" d="M1782.9 721c-32.8 13.3-75.6 5.6-75.6 5.6s40.3-8 72.5-24.1l3.1 18.5z"/><path d="M1692.9 761.4c0-11.4-9.2-20.6-20.6-20.6" fill="none" stroke="#73325a" stroke-width="5" stroke-linecap="round" stroke-miterlimit="10"/></g></g></g><g id="CHAIR"><path class="st4" d="M1798.8 2029.8l116.1 966.2m-619.4-966.2l-116 966.2m39.8-331.8H1875"/><path class="st15" d="M1194.6 2029.8h705.1c8.4 0 15.2-6.8 15.2-15.2V1994c0-8.4-6.8-15.2-15.2-15.2h-705.1c-8.4 0-15.2 6.8-15.2 15.2v20.6c.1 8.4 6.9 15.2 15.2 15.2z"/></g></g></svg>